<svg width="24" height="24" viewBox="0 0 24 24" fill="none" xmlns="http://www.w3.org/2000/svg">
<path d="M3.80994 7.76997C5.59363 6.83866 7.55975 6.30958 9.56994 6.21997C9.72846 6.74094 10.0502 7.19717 10.4877 7.52137C10.9253 7.84557 11.4554 8.02058 11.9999 8.02058C12.5445 8.02058 13.0746 7.84557 13.5121 7.52137C13.9497 7.19717 14.2714 6.74094 14.4299 6.21997C16.4401 6.30958 18.4063 6.83866 20.1899 7.76997C20.4912 7.91425 20.7516 8.13169 20.9472 8.40244C21.1428 8.67319 21.2675 8.98863 21.3099 9.31997C21.3099 11.08 17.3099 12.52 11.9999 12.52C6.68994 12.52 2.68994 11.08 2.68994 9.31997C2.73234 8.98863 2.85705 8.67319 3.05269 8.40244C3.24833 8.13169 3.50867 7.91425 3.80994 7.76997Z" stroke="#A1ABB9" stroke-linecap="round" stroke-linejoin="round"/>
<path d="M12 8V10" stroke="#A1ABB9" stroke-linecap="round" stroke-linejoin="round"/>
<path d="M21.3099 9.32001V19.32C21.3099 21.09 17.3099 22.52 11.9999 22.52C6.68994 22.52 2.68994 21.09 2.68994 19.32V9.32001C2.68994 11.08 6.68994 12.52 11.9999 12.52C17.3099 12.52 21.3099 11.08 21.3099 9.32001Z" stroke="#A1ABB9" stroke-linecap="round" stroke-linejoin="round"/>
<path d="M10.87 7.77C10.5586 7.61448 10.2826 7.39664 10.059 7.13001C9.83536 6.86337 9.66891 6.55363 9.56996 6.22C9.49708 5.98352 9.46 5.73746 9.45996 5.49C9.62974 4.58037 10.0486 3.7357 10.67 3.05C11.0829 2.50802 11.527 1.99049 12 1.5C12.4729 1.99049 12.917 2.50802 13.33 3.05C13.9513 3.7357 14.3702 4.58037 14.54 5.49C14.5399 5.73746 14.5028 5.98352 14.43 6.22C14.331 6.55363 14.1646 6.86337 13.9409 7.13001C13.7173 7.39664 13.4413 7.61448 13.13 7.77C12.7777 7.94078 12.3914 8.02951 12 8.02951C11.6085 8.02951 11.2222 7.94078 10.87 7.77Z" stroke="#A1ABB9" stroke-linecap="round" stroke-linejoin="round"/>
<path d="M12 15.91V19.13" stroke="#A1ABB9" stroke-linecap="round" stroke-linejoin="round"/>
<path d="M13.6099 17.52H10.3899" stroke="#A1ABB9" stroke-linecap="round" stroke-linejoin="round"/>
</svg>
