<svg width="24" height="24" viewBox="0 0 24 24" fill="none" xmlns="http://www.w3.org/2000/svg">
<path d="M10.9399 12.72L13.3799 7.66003" stroke="#A1ABB9" stroke-linecap="round" stroke-linejoin="round"/>
<path d="M9.53003 22.5V17.5" stroke="#A1ABB9" stroke-linecap="round" stroke-linejoin="round"/>
<path d="M12.2501 22.5H6.81006" stroke="#A1ABB9" stroke-linecap="round" stroke-linejoin="round"/>
<path d="M22.48 18.14V20.82C22.48 21.2656 22.303 21.6929 21.9879 22.008C21.6729 22.323 21.2456 22.5 20.8 22.5H17.44C16.9944 22.5 16.5671 22.323 16.2521 22.008C15.937 21.6929 15.76 21.2656 15.76 20.82V18.14H22.48ZM16.27 11.48L17.54 10.34H15.76V9.34003C15.76 8.89447 15.937 8.46715 16.2521 8.15209C16.5671 7.83703 16.9944 7.66003 17.44 7.66003H18V2.07003C17.9987 1.99565 18.0122 1.92176 18.0397 1.85265C18.0673 1.78355 18.1083 1.72063 18.1605 1.66757C18.2126 1.61451 18.2748 1.57236 18.3434 1.54359C18.412 1.51483 18.4856 1.50002 18.56 1.50003H19.69C19.7652 1.49867 19.84 1.51249 19.9097 1.54066C19.9795 1.56882 20.0429 1.61076 20.0961 1.66396C20.1493 1.71716 20.1912 1.78054 20.2194 1.85031C20.2475 1.92007 20.2614 1.9948 20.26 2.07003V7.66003H20.81C21.2556 7.66003 21.6829 7.83703 21.9979 8.15209C22.313 8.46715 22.49 8.89447 22.49 9.34003V11.48H16.27Z" stroke="#A1ABB9" stroke-linecap="round" stroke-linejoin="round"/>
<path d="M15.76 18.14V11.94L16.27 11.48H22.48V18.14H15.76Z" stroke="#A1ABB9" stroke-linecap="round" stroke-linejoin="round"/>
<path d="M17.55 10.34L9.53002 17.5L1.52002 10.34H17.55Z" stroke="#A1ABB9" stroke-linecap="round" stroke-linejoin="round"/>
<path d="M13.05 14.3601C11.67 14.1501 10.49 13.6501 8.73 13.2901C7.48984 13.0634 6.2144 13.1215 5 13.4601" stroke="#A1ABB9" stroke-linecap="round" stroke-linejoin="round"/>
</svg>
