<svg width="24" height="24" viewBox="0 0 24 24" fill="none" xmlns="http://www.w3.org/2000/svg">
<path d="M2.75 10.21H6.09V12.46C6.09 12.7703 6.21327 13.0679 6.43268 13.2873C6.6521 13.5067 6.9497 13.63 7.26 13.63H9.6C9.9103 13.63 10.2079 13.5067 10.4273 13.2873C10.6467 13.0679 10.77 12.7703 10.77 12.46V10.21H21.25C21.25 12.65 21.25 14.64 19.81 16.07C19.7141 16.1625 19.6023 16.237 19.48 16.29C18.8409 16.5538 18.1675 16.7255 17.48 16.8C13.8275 17.255 10.1325 17.255 6.48 16.8C5.79127 16.7206 5.11763 16.5421 4.48 16.27C4.36552 16.218 4.2607 16.147 4.17 16.06C2.77 14.62 2.75 12.65 2.75 10.21Z" stroke="#A1ABB9" stroke-linecap="round" stroke-linejoin="round"/>
<path d="M4.00003 18.76C3.99206 17.9095 4.1553 17.0661 4.48003 16.28" stroke="#A1ABB9" stroke-linecap="round" stroke-linejoin="round"/>
<path d="M17.49 16.8C18.1774 16.7256 18.8508 16.5538 19.49 16.29C19.825 17.0704 19.9985 17.9107 20 18.76" stroke="#A1ABB9" stroke-linecap="round" stroke-linejoin="round"/>
<path d="M1.5 10.21H2.75M21.25 10.21H22.5" stroke="#A1ABB9" stroke-linecap="round" stroke-linejoin="round"/>
<path d="M19.6401 10.21V6.75998C19.609 6.37685 19.4349 6.01945 19.1523 5.75886C18.8698 5.49826 18.4995 5.35358 18.1151 5.35358C17.7307 5.35358 17.3604 5.49826 17.0778 5.75886C16.7953 6.01945 16.6211 6.37685 16.5901 6.75998" stroke="#A1ABB9" stroke-linecap="round" stroke-linejoin="round"/>
<path d="M10.7701 12.46C10.7701 12.7703 10.6468 13.0679 10.4274 13.2873C10.208 13.5067 9.91039 13.63 9.60009 13.63H7.26009C6.94978 13.63 6.65219 13.5067 6.43277 13.2873C6.21336 13.0679 6.09009 12.7703 6.09009 12.46V9.71999C6.09009 9.40968 6.21336 9.11209 6.43277 8.89267C6.65219 8.67325 6.94978 8.54999 7.26009 8.54999H9.60009C9.90958 8.5526 10.2057 8.67671 10.4245 8.89556C10.6434 9.11441 10.7675 9.41049 10.7701 9.71999V12.46Z" stroke="#A1ABB9" stroke-linecap="round" stroke-linejoin="round"/>
</svg>
