<svg width="24" height="24" viewBox="0 0 24 24" fill="none" xmlns="http://www.w3.org/2000/svg">
<path d="M11.36 12.42V5.54999H1.5V14.34C1.49998 14.6669 1.56484 14.9905 1.69085 15.2922C1.81685 15.5938 2.00147 15.8675 2.23402 16.0972C2.46657 16.327 2.74241 16.5083 3.04556 16.6307C3.3487 16.753 3.67312 16.814 4 16.81H8.33C8.31974 16.6635 8.31974 16.5165 8.33 16.37C8.3 14.73 9.51 13.28 11.36 12.42Z" stroke="#A1ABB9" stroke-linecap="round" stroke-linejoin="round"/>
<path d="M6.43011 9.47996L5.14011 8.20996L3.86011 9.47996V11.42H6.43011V9.47996Z" stroke="#A1ABB9" stroke-linecap="round" stroke-linejoin="round"/>
<path d="M5.13989 8.20999V5.54999" stroke="#A1ABB9" stroke-linecap="round" stroke-linejoin="round"/>
<path d="M11.3601 8.04999H13.3601C13.8234 8.05525 14.266 8.243 14.5917 8.5725C14.9175 8.90199 15.1001 9.34665 15.1001 9.80999V11.57C13.8087 11.5967 12.5362 11.8859 11.3601 12.42V8.04999Z" stroke="#A1ABB9" stroke-linecap="round" stroke-linejoin="round"/>
<path d="M15.1 11.57H15.4C19.32 11.57 22.5 13.72 22.5 16.38C22.5212 16.8179 22.408 17.2518 22.1757 17.6236C21.9433 17.9953 21.6029 18.2872 21.2 18.46H9.59996C9.26496 18.3192 8.97202 18.0942 8.74952 17.8068C8.52702 17.5195 8.3825 17.1796 8.32996 16.82C8.3197 16.6735 8.3197 16.5265 8.32996 16.38C8.32996 14.74 9.53996 13.29 11.39 12.38C12.5582 11.8591 13.8209 11.5834 15.1 11.57Z" stroke="#A1ABB9" stroke-linecap="round" stroke-linejoin="round"/>
<path d="M14.73 14C14.7627 13.5281 14.8978 13.0691 15.1257 12.6546C15.3536 12.2402 15.669 11.8803 16.05 11.6" stroke="#A1ABB9" stroke-linecap="round" stroke-linejoin="round"/>
<path d="M17.28 14.4C17.2962 13.9394 17.4183 13.4887 17.6368 13.0829C17.8553 12.677 18.1644 12.327 18.54 12.06" stroke="#A1ABB9" stroke-linecap="round" stroke-linejoin="round"/>
<path d="M12.1799 14.3C12.2099 13.8014 12.3448 13.3149 12.5757 12.872C12.8066 12.4291 13.1284 12.04 13.5199 11.73" stroke="#A1ABB9" stroke-linecap="round" stroke-linejoin="round"/>
</svg>
