<svg width="24" height="24" viewBox="0 0 24 24" fill="none" xmlns="http://www.w3.org/2000/svg">
<path d="M22.43 1.94C22.43 2.24 22.43 2.6 22.48 3C22.53 3.4 22.48 4.62 22.48 6.22M22.48 10.87C22.48 13.54 22.48 15.99 22.48 16.55M1.53003 16.55C1.53003 15.99 1.53003 13.55 1.53003 10.87M1.53003 6.22C1.53003 4.62 1.53003 3.38 1.53003 3C1.53003 2.62 1.53003 2.24 1.53003 1.94" stroke="#A1ABB9" stroke-linecap="round" stroke-linejoin="round"/>
<path d="M16.1099 16.55C15.9636 16.4268 15.8452 16.274 15.7624 16.1016C15.6797 15.9292 15.6345 15.7412 15.6299 15.55C15.6325 15.077 15.8223 14.6243 16.1577 14.2908C16.4931 13.9572 16.9469 13.77 17.4199 13.77H18.9299C19.4029 13.77 19.8567 13.9572 20.1921 14.2908C20.5275 14.6243 20.7172 15.077 20.7199 15.55C20.7153 15.7402 20.6711 15.9273 20.5902 16.0995C20.5092 16.2717 20.3934 16.4251 20.2499 16.55H16.1099Z" stroke="#A1ABB9" stroke-linecap="round" stroke-linejoin="round"/>
<path d="M16.1099 6.22002C15.9636 6.09684 15.8452 5.944 15.7624 5.7716C15.6797 5.5992 15.6345 5.4112 15.6299 5.22002C15.6259 4.98245 15.6693 4.74645 15.7574 4.5258C15.8456 4.30516 15.9768 4.10427 16.1434 3.93486C16.3101 3.76546 16.5087 3.63092 16.7279 3.53909C16.947 3.44727 17.1823 3.39999 17.4199 3.40002H18.9299C19.4046 3.40002 19.8599 3.58861 20.1956 3.9243C20.5313 4.25999 20.7199 4.71529 20.7199 5.19002C20.7153 5.38021 20.6711 5.56734 20.5902 5.73951C20.5093 5.91168 20.3934 6.06511 20.2499 6.19002L16.1099 6.22002Z" stroke="#A1ABB9" stroke-linecap="round" stroke-linejoin="round"/>
<path d="M1.53003 16.55H22.47C22.47 16.96 22.47 17.32 22.47 17.61C22.513 18.7973 22.2909 19.9792 21.82 21.07C21.4 21.51 19.68 21.75 17.89 21.88L17.04 21.94C14.47 22.06 10.04 22.06 10.04 22.06H9.26003C8.70003 22 7.89003 22 7.00003 22L6.15003 21.94C4.42003 21.81 2.66003 21.57 2.21003 21.1C1.73913 20.0092 1.51709 18.8273 1.56003 17.64C1.55003 17.32 1.54003 17 1.53003 16.55Z" stroke="#A1ABB9" stroke-linecap="round" stroke-linejoin="round"/>
<path d="M1.5 6.22003H22.5V10.87C20.9808 11.2723 19.4208 11.5004 17.85 11.55H17C14.43 11.67 10 11.67 10 11.67H9.26C8.7 11.67 7.88 11.67 7.01 11.59L6.16 11.54C4.58367 11.4927 3.01891 11.2543 1.5 10.83V6.22003Z" stroke="#A1ABB9" stroke-linecap="round" stroke-linejoin="round"/>
</svg>
