<svg width="24" height="24" viewBox="0 0 24 24" fill="none" xmlns="http://www.w3.org/2000/svg">
<path d="M1.5 21.94C1.5 20.38 1.66 14.19 2.43 13.43C4.28 11.62 11.69 11.62 13.54 13.43C14.31 14.19 14.44 20.43 14.47 21.94H1.5Z" stroke="#A1ABB9" stroke-linecap="round" stroke-linejoin="round"/>
<path d="M13.46 13.43L8.00001 18.25L2.51001 13.44" stroke="#A1ABB9" stroke-linecap="round" stroke-linejoin="round"/>
<path d="M7.98004 9.92999C10.156 9.92999 11.92 8.16599 11.92 5.98999C11.92 3.81399 10.156 2.04999 7.98004 2.04999C5.80404 2.04999 4.04004 3.81399 4.04004 5.98999C4.04004 8.16599 5.80404 9.92999 7.98004 9.92999Z" stroke="#A1ABB9" stroke-linecap="round" stroke-linejoin="round"/>
<path d="M7.68994 14.56H8.27994" stroke="#A1ABB9" stroke-linecap="round" stroke-linejoin="round"/>
<path d="M21.49 10.15C21.49 9.0891 21.0686 8.07168 20.3184 7.32154C19.5683 6.57139 18.5509 6.14996 17.49 6.14996C16.4291 6.14996 15.4117 6.57139 14.6616 7.32154C13.9114 8.07168 13.49 9.0891 13.49 10.15H21.49Z" stroke="#A1ABB9" stroke-linecap="round" stroke-linejoin="round"/>
<path d="M22.5 10.15H12.5" stroke="#A1ABB9" stroke-linecap="round" stroke-linejoin="round"/>
<path d="M17.5 6.16V5" stroke="#A1ABB9" stroke-linecap="round" stroke-linejoin="round"/>
</svg>
