<svg width="25" height="24" viewBox="0 0 25 24" fill="none" xmlns="http://www.w3.org/2000/svg">
<path d="M2.5 12C2.5 8.22876 2.5 6.34315 3.67157 5.17157C4.84315 4 6.72876 4 10.5 4H14.5C18.2712 4 20.1569 4 21.3284 5.17157C22.5 6.34315 22.5 8.22876 22.5 12V14C22.5 17.7712 22.5 19.6569 21.3284 20.8284C20.1569 22 18.2712 22 14.5 22H10.5C6.72876 22 4.84315 22 3.67157 20.8284C2.5 19.6569 2.5 17.7712 2.5 14V12Z" stroke="#0085F4" stroke-width="1.5"/>
<path d="M7.5 4V2.5" stroke="#0085F4" stroke-width="1.5" stroke-linecap="round"/>
<path d="M17.5 4V2.5" stroke="#0085F4" stroke-width="1.5" stroke-linecap="round"/>
<path d="M3 9H22" stroke="#0085F4" stroke-width="1.5" stroke-linecap="round"/>
</svg>
