<svg width="77" height="55" viewBox="0 0 77 55" fill="none" xmlns="http://www.w3.org/2000/svg">
<path d="M60.4141 14.5582C59.4807 13.5575 58.1917 12.9662 56.725 12.9662H49.3468V12.8752C49.3468 11.7381 48.9023 10.6465 48.1467 9.9187C47.3911 9.14546 46.3688 8.69061 45.2576 8.69061H31.9235C30.7679 8.69061 29.7456 9.14546 28.99 9.9187C28.2344 10.6919 27.7899 11.7381 27.7899 12.8752V12.9662H20.4562C18.9894 12.9662 17.7005 13.5575 16.7671 14.5582C15.8337 15.5133 15.2114 16.8779 15.2114 18.3334V40.9848C15.2114 42.4858 15.7892 43.8049 16.7671 44.7601C17.7005 45.7152 19.0339 46.352 20.4562 46.352H56.725C58.1917 46.352 59.4807 45.7607 60.4141 44.7601C61.3475 43.8049 61.9697 42.4403 61.9697 40.9848V18.3334C61.9697 16.8324 61.3919 15.5133 60.4141 14.5582ZM59.6585 40.9848H59.614C59.614 41.8036 59.3029 42.5313 58.7696 43.0771C58.2362 43.6229 57.525 43.9413 56.725 43.9413H20.4562C19.6561 43.9413 18.945 43.6229 18.4116 43.0771C17.8782 42.5313 17.5671 41.8036 17.5671 40.9848V18.3334C17.5671 17.5147 17.8782 16.7869 18.4116 16.2411C18.945 15.6953 19.6561 15.3769 20.4562 15.3769H29.0345C29.7012 15.3769 30.2345 14.8311 30.2345 14.1488V12.8297C30.2345 12.3294 30.4123 11.8745 30.7235 11.5562C31.0346 11.2378 31.4791 11.0558 31.968 11.0558H45.2576C45.7466 11.0558 46.191 11.2378 46.5022 11.5562C46.8133 11.8745 46.9911 12.3294 46.9911 12.8297V14.1488C46.9911 14.8311 47.5244 15.3769 48.1911 15.3769H56.7694C57.5695 15.3769 58.2806 15.6953 58.814 16.2411C59.3474 16.7869 59.6585 17.5147 59.6585 18.3334V40.9848Z" fill="#0085F4"/>
<path d="M38.5906 18.4698C35.5682 18.4698 32.8125 19.7434 30.8568 21.7448C28.8567 23.7916 27.6566 26.5661 27.6566 29.6591C27.6566 32.7521 28.9011 35.5721 30.8568 37.5735C32.8569 39.6203 35.5682 40.8484 38.5906 40.8484C41.613 40.8484 44.3687 39.5748 46.3244 37.5735C48.3245 35.5266 49.5246 32.7521 49.5246 29.6591C49.5246 26.5661 48.2801 23.7461 46.3244 21.7448C44.3687 19.7434 41.613 18.4698 38.5906 18.4698ZM44.6354 35.8905C43.0797 37.437 40.9463 38.4377 38.5906 38.4377C36.2349 38.4377 34.1014 37.437 32.5458 35.8905C30.9901 34.2986 30.0568 32.1153 30.0568 29.7046C30.0568 27.2939 31.0346 25.1106 32.5458 23.5187C34.1014 21.9267 36.2349 20.9715 38.5906 20.9715C40.9463 20.9715 43.0797 21.9722 44.6354 23.5187C46.191 25.1106 47.1244 27.2939 47.1244 29.7046C47.1689 32.1153 46.191 34.2986 44.6354 35.8905Z" fill="#0085F4"/>
<path d="M54.4137 22.8819C55.6166 22.8819 56.5916 21.884 56.5916 20.6531C56.5916 19.4222 55.6166 18.4244 54.4137 18.4244C53.2109 18.4244 52.2358 19.4222 52.2358 20.6531C52.2358 21.884 53.2109 22.8819 54.4137 22.8819Z" fill="#0085F4"/>
</svg>
