<svg width="24" height="24" viewBox="0 0 24 24" fill="none" xmlns="http://www.w3.org/2000/svg">
<path d="M10.77 5.63H12C12 5.63 19.78 5.63 20.87 6.74C23 8.94 23 17.8 20.87 20C19.78 21.13 12 21.14 12 21.14H11.12C9.05 21.14 3.99 20.91 3.12 20.03C1 17.8 1 8.94 3.13 6.72C4.0484 6.2092 5.07921 5.93432 6.13 5.92C7.69 5.73 9.57 5.65 10.77 5.63Z" stroke="#A1ABB9" stroke-linecap="round" stroke-linejoin="round"/>
<path d="M15.9281 13.6488C16.0825 11.4783 14.4482 9.59355 12.2777 9.43911C10.1072 9.28467 8.22241 10.919 8.06797 13.0895C7.91353 15.26 9.54788 17.1448 11.7184 17.2992C13.8889 17.4537 15.7737 15.8193 15.9281 13.6488Z" stroke="#A1ABB9" stroke-linecap="round" stroke-linejoin="round"/>
<path d="M6.09009 5.91999V3.99999C6.09791 3.69491 6.22463 3.40497 6.4432 3.192C6.66178 2.97903 6.95491 2.85989 7.26009 2.85999H9.60009C9.9045 2.86239 10.1962 2.98235 10.4142 3.1948C10.6323 3.40724 10.7598 3.69574 10.7701 3.99999V5.59999C9.57009 5.64999 7.69009 5.72999 6.09009 5.91999Z" stroke="#A1ABB9" stroke-linecap="round" stroke-linejoin="round"/>
<path d="M18.26 8.60999V9.54999" stroke="#A1ABB9" stroke-linecap="round" stroke-linejoin="round"/>
</svg>
