<svg width="24" height="24" viewBox="0 0 24 24" fill="none" xmlns="http://www.w3.org/2000/svg">
<path d="M18.9 10.28H3.45996C3.54996 8.65 3.91996 6.52 5.09996 6.06C9.06459 4.86078 13.2953 4.86078 17.26 6.06C18.4 6.5 18.78 8.7 18.9 10.28Z" stroke="#A1ABB9" stroke-linecap="round" stroke-linejoin="round"/>
<path d="M20.1299 10.28C20.7593 10.44 21.3247 10.789 21.7499 11.28C23.4399 13 21.7499 15.71 21.7499 15.71H19.2799C19.1574 15.1229 18.8366 14.596 18.3713 14.2177C17.9059 13.8395 17.3246 13.633 16.7249 13.633C16.1252 13.633 15.5439 13.8395 15.0785 14.2177C14.6132 14.596 14.2924 15.1229 14.1699 15.71H8.7699C8.64744 15.1229 8.32657 14.596 7.86126 14.2177C7.39594 13.8395 6.81457 13.633 6.2149 13.633C5.61523 13.633 5.03385 13.8395 4.56854 14.2177C4.10322 14.596 3.78236 15.1229 3.6599 15.71H1.5499C1.5499 15.71 1.0499 11 3.1699 10.28H20.1299Z" stroke="#A1ABB9" stroke-linecap="round" stroke-linejoin="round"/>
<path d="M10.6399 10.28V5.15997" stroke="#A1ABB9" stroke-linecap="round" stroke-linejoin="round"/>
<path d="M8.76998 15.7099C8.80174 15.8815 8.81847 16.0555 8.81998 16.2299C8.84203 16.5856 8.79101 16.942 8.67007 17.2772C8.54913 17.6124 8.36082 17.9193 8.11676 18.179C7.87271 18.4386 7.57806 18.6456 7.25098 18.787C6.92391 18.9285 6.57133 19.0014 6.21498 19.0014C5.85863 19.0014 5.50605 18.9285 5.17898 18.787C4.8519 18.6456 4.55726 18.4386 4.3132 18.179C4.06914 17.9193 3.88084 17.6124 3.75989 17.2772C3.63895 16.942 3.58793 16.5856 3.60998 16.2299C3.60631 16.0553 3.62309 15.8807 3.65998 15.7099C3.78244 15.1229 4.10331 14.596 4.56862 14.2177C5.03394 13.8394 5.61531 13.6329 6.21498 13.6329C6.81465 13.6329 7.39603 13.8394 7.86134 14.2177C8.32666 14.596 8.64752 15.1229 8.76998 15.7099Z" stroke="#A1ABB9" stroke-linecap="round" stroke-linejoin="round"/>
<path d="M19.2799 15.7099C19.3001 15.8827 19.3001 16.0572 19.2799 16.2299C19.302 16.5856 19.251 16.942 19.13 17.2772C19.0091 17.6124 18.8208 17.9193 18.5767 18.179C18.3327 18.4386 18.038 18.6456 17.7109 18.787C17.3839 18.9285 17.0313 19.0014 16.6749 19.0014C16.3186 19.0014 15.966 18.9285 15.6389 18.787C15.3119 18.6456 15.0172 18.4386 14.7732 18.179C14.5291 17.9193 14.3408 17.6124 14.2199 17.2772C14.0989 16.942 14.0479 16.5856 14.0699 16.2299C14.0715 16.0555 14.0882 15.8815 14.1199 15.7099C14.2424 15.1229 14.5633 14.596 15.0286 14.2177C15.4939 13.8394 16.0753 13.6329 16.6749 13.6329C17.2746 13.6329 17.856 13.8394 18.3213 14.2177C18.7866 14.596 19.1075 15.1229 19.2299 15.7099H19.2799Z" stroke="#A1ABB9" stroke-linecap="round" stroke-linejoin="round"/>
</svg>
