<svg width="24" height="24" viewBox="0 0 24 24" fill="none" xmlns="http://www.w3.org/2000/svg">
<path d="M6.80005 22.5C6.80005 21.25 6.92005 16.28 7.54005 15.67C9.03005 14.21 14.97 14.21 16.46 15.67C17.08 16.28 17.18 21.25 17.2 22.5H6.80005Z" stroke="#A1ABB9" stroke-linecap="round" stroke-linejoin="round"/>
<path d="M10.5601 14.66L12.7101 16.79V22.5" stroke="#A1ABB9" stroke-linecap="round" stroke-linejoin="round"/>
<path d="M8.92005 8.86999C8.94427 7.97585 9.02443 7.08411 9.16005 6.19999C8.70477 6.13199 8.29218 5.894 8.00536 5.53395C7.71854 5.17391 7.57881 4.71855 7.61431 4.2596C7.64981 3.80064 7.8579 3.37219 8.19667 3.06053C8.53545 2.74887 8.97973 2.57716 9.44005 2.57999C9.72575 2.57751 10.0076 2.64625 10.26 2.77999C10.3743 2.40761 10.6049 2.08169 10.9181 1.85015C11.2313 1.61861 11.6105 1.49365 12 1.49365C12.3895 1.49365 12.7688 1.61861 13.082 1.85015C13.3952 2.08169 13.6258 2.40761 13.74 2.77999C13.9925 2.64625 14.2743 2.57751 14.56 2.57999C15.0204 2.57716 15.4646 2.74887 15.8034 3.06053C16.1422 3.37219 16.3503 3.80064 16.3858 4.2596C16.4213 4.71855 16.2816 5.17391 15.9947 5.53395C15.7079 5.894 15.2953 6.13199 14.84 6.19999C14.9757 7.08411 15.0558 7.97585 15.08 8.86999V8.99999H8.92005V8.86999Z" stroke="#A1ABB9" stroke-linecap="round" stroke-linejoin="round"/>
<path d="M15.0801 8.87C15.1325 9.10644 15.1593 9.34782 15.1601 9.59C15.1601 10.4281 14.8272 11.2318 14.2345 11.8245C13.6419 12.4171 12.8382 12.75 12.0001 12.75C11.162 12.75 10.3582 12.4171 9.76563 11.8245C9.17302 11.2318 8.84009 10.4281 8.84009 9.59C8.84088 9.34782 8.8677 9.10644 8.92009 8.87V9H15.0801V8.87Z" stroke="#A1ABB9" stroke-linecap="round" stroke-linejoin="round"/>
</svg>
