<svg width="24" height="24" viewBox="0 0 24 24" fill="none" xmlns="http://www.w3.org/2000/svg">
<path d="M4.25 12.88C4.25 12.34 4.25 12 4.25 12C4.25 12 4.25 4.21997 5.36 3.12997C7.57 0.999971 16.43 0.999971 18.65 3.12997C19.76 4.21997 19.76 12 19.76 12C19.76 12 19.76 12.34 19.76 12.88C19.76 14.95 19.54 20.01 18.66 20.88C16.43 23 7.57 23 5.35 20.87C4.47 20 4.28 15 4.25 12.88Z" stroke="#A1ABB9" stroke-linecap="round" stroke-linejoin="round"/>
<path d="M19.75 12.88C19.75 14.95 19.53 20.01 18.65 20.88C16.43 23 7.57 23 5.35 20.87C4.47 20.01 4.28 14.95 4.25 12.87C7.38 11.35 16.62 11.35 19.75 12.88Z" stroke="#A1ABB9" stroke-linecap="round" stroke-linejoin="round"/>
<path d="M10.91 6.27C10.91 6.27 10.91 7.43 10.61 7.59C9.4303 7.92761 8.1796 7.92761 6.99995 7.59C6.69995 7.43 6.69995 6.27 6.69995 6.27C6.69995 6.27 6.73995 5.12 6.99995 5C8.16845 4.6801 9.40145 4.6801 10.57 5C10.91 5.12 10.91 6.27 10.91 6.27Z" stroke="#A1ABB9" stroke-linecap="round" stroke-linejoin="round"/>
<path d="M17.2601 6.26999C17.2601 6.26999 17.2601 7.42999 16.9601 7.58999C15.793 7.92002 14.5572 7.92002 13.3901 7.58999C13.0901 7.42999 13.0901 6.26999 13.0901 6.26999C13.0901 6.26999 13.0901 5.11999 13.3901 4.94999C14.5757 4.63907 15.8235 4.65635 17.0001 4.99999C17.2601 5.11999 17.2601 6.26999 17.2601 6.26999Z" stroke="#A1ABB9" stroke-linecap="round" stroke-linejoin="round"/>
</svg>
