<svg width="24" height="24" viewBox="0 0 24 24" fill="none" xmlns="http://www.w3.org/2000/svg">
<path d="M6.15995 7.12998C6.15502 7.06007 6.15502 6.98989 6.15995 6.91998C6.15995 5.30998 7.15995 4.28998 12.02 4.28998C16.88 4.28998 17.88 5.28998 17.88 6.91998C17.8849 6.98989 17.8849 7.06007 17.88 7.12998C17.55 8.65998 15.16 8.99998 12 8.99998C8.83995 8.99998 6.44995 8.65998 6.15995 7.12998Z" stroke="#A1ABB9" stroke-linecap="round" stroke-linejoin="round"/>
<path d="M6.15991 7.13C6.44991 8.66 8.83991 9 11.9999 9C15.1599 9 17.5499 8.7 17.8399 7.17L16.5099 20.38C16.4577 20.9574 16.192 21.4946 15.7648 21.8867C15.3377 22.2787 14.7797 22.4974 14.1999 22.5H9.79991C9.22013 22.4974 8.66215 22.2787 8.23498 21.8867C7.80782 21.4946 7.54216 20.9574 7.48991 20.38L6.15991 7.13Z" stroke="#A1ABB9" stroke-linecap="round" stroke-linejoin="round"/>
<path d="M7.82007 1.71998C7.82007 1.71998 10.1001 0.839976 10.3701 2.60998C11.0001 6.99998 12.0601 18.33 12.0601 18.33" stroke="#A1ABB9" stroke-linecap="round" stroke-linejoin="round"/>
</svg>
