<svg width="24" height="24" viewBox="0 0 24 24" fill="none" xmlns="http://www.w3.org/2000/svg">
<path d="M7.13989 7.64001V10.1C7.13989 10.3414 7.23577 10.5728 7.40643 10.7435C7.57708 10.9141 7.80855 11.01 8.04989 11.01H10.2199C10.4612 11.01 10.6927 10.9141 10.8634 10.7435C11.034 10.5728 11.1299 10.3414 11.1299 10.1V7.64001" stroke="#A1ABB9" stroke-linecap="round" stroke-linejoin="round"/>
<path d="M9.12988 11V16.35" stroke="#A1ABB9" stroke-linecap="round" stroke-linejoin="round"/>
<path d="M16.4701 13.18C16.7995 11.9758 16.7577 10.7001 16.3501 9.52002C16.2208 9.00964 15.9337 8.55312 15.5296 8.21554C15.1256 7.87795 14.6253 7.67654 14.1001 7.64001V13.18H16.4701Z" stroke="#A1ABB9" stroke-linecap="round" stroke-linejoin="round"/>
<path d="M14.1001 16.36V13.18" stroke="#A1ABB9" stroke-linecap="round" stroke-linejoin="round"/>
<path d="M20.4 3.6C17.6 0.8 6.4 0.8 3.6 3.6C0.8 6.4 0.8 17.6 3.6 20.4C6.4 23.2 17.6 23.2 20.4 20.4C23.2 17.6 23.2 6.4 20.4 3.6Z" stroke="#A1ABB9" stroke-linecap="round" stroke-linejoin="round"/>
</svg>
