<svg width="24" height="24" viewBox="0 0 24 24" fill="none" xmlns="http://www.w3.org/2000/svg">
<path d="M7.87 14.17C7.87618 14.7017 7.75261 15.2269 7.51 15.7C6.58 16.6 2.89 16.6 1.97 15.7C1.5 15.24 1.5 12 1.5 12V11.63C1.5 10.77 1.6 8.63 1.97 8.3C2.89 7.4 6.58 7.4 7.51 8.3C7.71768 8.68096 7.83085 9.10621 7.84 9.54V9.83C7.9 10.42 7.92 11.06 7.93 11.49V12C7.93 12 8 13.14 7.87 14.17Z" stroke="#A1ABB9" stroke-linecap="round" stroke-linejoin="round"/>
<path d="M16.12 9.85C16.1199 9.31145 16.2467 8.78045 16.49 8.3C17.42 7.4 21.11 7.4 22.04 8.3C22.2477 8.68096 22.3609 9.10621 22.37 9.54C22.45 10.21 22.48 10.99 22.49 11.54V12C22.49 12 22.49 15.24 22.03 15.7C21.1 16.6 17.41 16.6 16.48 15.7C16.2454 15.2382 16.1221 14.7279 16.12 14.21C16 13.18 16 12 16 12V11.63C16 11.22 16.06 10.51 16.12 9.85Z" stroke="#A1ABB9" stroke-linecap="round" stroke-linejoin="round"/>
<path d="M7.87012 9.82998C9.52012 9.66998 12.0001 9.66998 12.0001 9.66998H12.3701C12.9301 9.66998 14.8001 9.66998 16.1201 9.83998C16.0601 10.5 16.0401 11.2 16.0301 11.62V12C16.0301 12 16.0301 13.18 16.1301 14.21C15.2901 14.28 12.9801 14.31 12.5101 14.32H12.0001C12.0001 14.32 9.52012 14.32 7.87012 14.16C8.00012 13.14 8.00012 12 8.00012 12V11.49C8.00012 11.06 7.93012 10.42 7.87012 9.82998Z" stroke="#A1ABB9" stroke-linecap="round" stroke-linejoin="round"/>
</svg>
