<svg width="24" height="24" viewBox="0 0 24 24" fill="none" xmlns="http://www.w3.org/2000/svg">
<path d="M9.20992 14.83L17.9199 12.9V3.46998L9.20992 1.52998C8.30649 1.43732 7.39367 1.5359 6.53085 1.8193C5.66803 2.10269 4.87454 2.56456 4.20199 3.17485C3.52944 3.78514 2.99291 4.53019 2.6273 5.36151C2.26169 6.19284 2.07518 7.09182 2.07992 7.99998V8.39998C2.08097 9.30525 2.27198 10.2002 2.64061 11.027C3.00923 11.8539 3.54726 12.5941 4.21992 13.2C4.85322 13.766 5.59011 14.2041 6.38992 14.49C7.29259 14.8131 8.25632 14.9293 9.20992 14.83Z" stroke="#A1ABB9" stroke-linecap="round" stroke-linejoin="round"/>
<path d="M17.9199 12.89V3.46997L21.9199 3.87997V12.48L17.9199 12.89Z" stroke="#A1ABB9" stroke-linecap="round" stroke-linejoin="round"/>
<path d="M5.61987 8.17999C5.61987 7.54907 5.80696 6.93232 6.15749 6.40772C6.50801 5.88313 7.00622 5.47426 7.58911 5.23282C8.17201 4.99137 8.81341 4.9282 9.43221 5.05129C10.051 5.17437 10.6194 5.47819 11.0655 5.92432C11.5117 6.37045 11.8155 6.93885 11.9386 7.55765C12.0617 8.17645 11.9985 8.81786 11.757 9.40075C11.5156 9.98365 11.1067 10.4819 10.5821 10.8324C10.0575 11.1829 9.4408 11.37 8.80987 11.37C7.96383 11.37 7.15244 11.0339 6.5542 10.4357C5.95596 9.83742 5.61987 9.02603 5.61987 8.17999Z" stroke="#A1ABB9" stroke-linecap="round" stroke-linejoin="round"/>
<path d="M6.38986 14.49C7.29253 14.8131 8.25626 14.9293 9.20986 14.83L11.2099 14.38V20.08C11.1703 20.6962 10.8976 21.2743 10.4471 21.6967C9.99671 22.1191 9.40237 22.3542 8.78486 22.3542C8.16736 22.3542 7.57301 22.1191 7.12259 21.6967C6.67217 21.2743 6.39946 20.6962 6.35986 20.08L6.38986 14.49Z" stroke="#A1ABB9" stroke-linecap="round" stroke-linejoin="round"/>
</svg>
