<svg width="24" height="24" viewBox="0 0 24 24" fill="none" xmlns="http://www.w3.org/2000/svg">
<path d="M21.6801 8.37H2.32007V6.2C2.32007 4.66 2.58007 3.42 4.12007 3.42H7.65007C8.20199 2.81542 8.87387 2.33253 9.62285 2.00214C10.3718 1.67174 11.1815 1.5011 12.0001 1.5011C12.8187 1.5011 13.6283 1.67174 14.3773 2.00214C15.1263 2.33253 15.7982 2.81542 16.3501 3.42H19.8801C21.4201 3.42 21.6801 4.66 21.6801 6.2V8.37Z" stroke="#A1ABB9" stroke-linecap="round" stroke-linejoin="round"/>
<path d="M7.22 8.37H4.25V19.14H7.22V8.37Z" stroke="#A1ABB9" stroke-linecap="round" stroke-linejoin="round"/>
<path d="M19.75 8.37H16.78V19.14H19.75V8.37Z" stroke="#A1ABB9" stroke-linecap="round" stroke-linejoin="round"/>
<path d="M2.81006 22.5H21.1901" stroke="#A1ABB9" stroke-linecap="round" stroke-linejoin="round"/>
</svg>
