<svg width="24" height="24" viewBox="0 0 24 24" fill="none" xmlns="http://www.w3.org/2000/svg">
<path d="M18.33 19.85C19.79 15.97 20.45 5.13 18.53 3.17C16.35 0.939998 7.65005 0.939998 5.47005 3.17C3.55005 5.17 4.21005 15.97 5.67005 19.85H18.33Z" stroke="#A1ABB9" stroke-linecap="round" stroke-linejoin="round"/>
<path d="M5.67017 22.5H18.5302" stroke="#A1ABB9" stroke-linecap="round" stroke-linejoin="round"/>
<path d="M12 19.85C12 19.85 10.36 19.85 10.13 19.33C9.67118 17.2989 9.67118 15.1911 10.13 13.16C10.36 12.64 12 12.64 12 12.64C12 12.64 13.64 12.64 13.87 13.16C14.3289 15.1911 14.3289 17.2989 13.87 19.33C13.64 19.84 12 19.85 12 19.85Z" stroke="#A1ABB9" stroke-linecap="round" stroke-linejoin="round"/>
<path d="M7.71997 6.63V7.64" stroke="#A1ABB9" stroke-linecap="round" stroke-linejoin="round"/>
<path d="M16.28 6.63V7.64" stroke="#A1ABB9" stroke-linecap="round" stroke-linejoin="round"/>
<path d="M12 6.63V7.64" stroke="#A1ABB9" stroke-linecap="round" stroke-linejoin="round"/>
</svg>
