<svg width="24" height="24" viewBox="0 0 24 24" fill="none" xmlns="http://www.w3.org/2000/svg">
<path d="M7.72 12.7C8.26261 12.1044 8.92354 11.6287 9.66052 11.3031C10.3975 10.9776 11.1943 10.8094 12 10.8094C12.8057 10.8094 13.6025 10.9776 14.3395 11.3031C15.0765 11.6287 15.7374 12.1044 16.28 12.7H19.76C20.4867 12.7 21.1836 12.9887 21.6975 13.5025C22.2113 14.0164 22.5 14.7133 22.5 15.44V17.87C22.5 18.2298 22.4291 18.5861 22.2914 18.9186C22.1537 19.251 21.9519 19.553 21.6975 19.8075C21.443 20.0619 21.141 20.2637 20.8086 20.4014C20.4761 20.5391 20.1198 20.61 19.76 20.61H16.28C15.7374 21.2056 15.0765 21.6813 14.3395 22.0069C13.6025 22.3324 12.8057 22.5006 12 22.5006C11.1943 22.5006 10.3975 22.3324 9.66052 22.0069C8.92354 21.6813 8.26261 21.2056 7.72 20.61H4.24C3.51331 20.61 2.81638 20.3213 2.30253 19.8075C1.78868 19.2936 1.5 18.5967 1.5 17.87V15.44C1.5 14.7133 1.78868 14.0164 2.30253 13.5025C2.81638 12.9887 3.51331 12.7 4.24 12.7H7.72Z" stroke="#A1ABB9" stroke-linecap="round" stroke-linejoin="round"/>
<path d="M5.37988 6.65V4.25" stroke="#A1ABB9" stroke-linecap="round" stroke-linejoin="round"/>
<path d="M18.6101 6.65V4.25" stroke="#A1ABB9" stroke-linecap="round" stroke-linejoin="round"/>
<path d="M5.39009 6.65002C5.39009 6.65002 6.93009 7.65002 6.93009 8.47002C6.93009 9.29002 5.39009 10.3 5.39009 10.3C5.39009 10.3 3.84009 9.30002 3.84009 8.47002C3.84009 7.64002 5.39009 6.65002 5.39009 6.65002Z" stroke="#A1ABB9" stroke-linecap="round" stroke-linejoin="round"/>
<path d="M18.6201 6.65002C18.6201 6.65002 20.1601 7.65002 20.1601 8.47002C20.1601 9.29002 18.6201 10.3 18.6201 10.3C18.6201 10.3 17.0701 9.30002 17.0701 8.47002C17.0701 7.64002 18.6201 6.65002 18.6201 6.65002Z" stroke="#A1ABB9" stroke-linecap="round" stroke-linejoin="round"/>
<path d="M5.37988 12.7V10.3" stroke="#A1ABB9" stroke-linecap="round" stroke-linejoin="round"/>
<path d="M18.6101 12.7V10.3" stroke="#A1ABB9" stroke-linecap="round" stroke-linejoin="round"/>
<path d="M21.83 2.87C21.8274 2.50746 21.6822 2.16052 21.4258 1.90416C21.1695 1.6478 20.8225 1.50262 20.46 1.5H3.53998C3.19555 1.5294 2.8747 1.68699 2.64089 1.94161C2.40708 2.19623 2.27734 2.52932 2.27734 2.875C2.27734 3.22068 2.40708 3.55377 2.64089 3.80839C2.8747 4.06301 3.19555 4.2206 3.53998 4.25H20.46C20.8242 4.24736 21.1727 4.1008 21.4293 3.84229C21.686 3.58377 21.83 3.23427 21.83 2.87Z" stroke="#A1ABB9" stroke-linecap="round" stroke-linejoin="round"/>
</svg>
