<svg width="24" height="24" viewBox="0 0 24 24" fill="none" xmlns="http://www.w3.org/2000/svg">
<path d="M1.76006 19C1.41006 18.65 1.41006 5.44999 1.76006 5.09999C2.11006 4.74999 21.7601 4.64999 22.2401 5.09999C22.7201 5.54999 22.5901 18.65 22.2401 19C21.8901 19.35 2.23006 19.44 1.76006 19Z" stroke="#A1ABB9" stroke-linecap="round" stroke-linejoin="round"/>
<path d="M13.8301 9.34998H19.7401" stroke="#A1ABB9" stroke-linecap="round" stroke-linejoin="round"/>
<path d="M13.8301 12H19.7401" stroke="#A1ABB9" stroke-linecap="round" stroke-linejoin="round"/>
<path d="M13.8301 14.65H19.7401" stroke="#A1ABB9" stroke-linecap="round" stroke-linejoin="round"/>
<path d="M5.37017 14.4C4.79766 13.9203 4.41292 13.2538 4.28381 12.5181C4.1547 11.7825 4.2895 11.0248 4.66445 10.3788C5.0394 9.73286 5.6304 9.24002 6.33324 8.98724C7.03608 8.73445 7.80561 8.73796 8.50611 8.99715C9.20661 9.25634 9.7931 9.75455 10.1621 10.4039C10.5312 11.0533 10.6591 11.8121 10.5232 12.5466C10.3874 13.2811 9.99662 13.944 9.41976 14.4184C8.8429 14.8929 8.11703 15.1484 7.37017 15.14C6.63774 15.1333 5.93052 14.8717 5.37017 14.4Z" stroke="#A1ABB9" stroke-linecap="round" stroke-linejoin="round"/>
<path d="M7.40015 11.37V11.81" stroke="#A1ABB9" stroke-linecap="round" stroke-linejoin="round"/>
</svg>
