<svg width="24" height="24" viewBox="0 0 24 24" fill="none" xmlns="http://www.w3.org/2000/svg">
<path d="M11.68 14.63C13.08 16.7 13.26 19.07 11.35 20.98C8.99998 23.31 5.99998 22.53 3.67998 20.2C1.35998 17.87 0.579977 14.86 2.90998 12.53C4.80998 10.62 7.17998 10.8 9.24998 12.21L19.39 2.06001C19.6763 1.77726 20.0626 1.61871 20.465 1.61871C20.8674 1.61871 21.2536 1.77726 21.54 2.06001L21.82 2.34001C22.1027 2.62636 22.2613 3.01259 22.2613 3.41501C22.2613 3.81743 22.1027 4.20366 21.82 4.49001L20.16 6.15001L22.16 8.15001C22.3785 8.37904 22.5002 8.68348 22.5 9.00001C22.4984 9.32889 22.3694 9.64436 22.14 9.88001C21.9055 10.1112 21.5893 10.2406 21.26 10.24C21.0984 10.2401 20.9384 10.2083 20.7892 10.1466C20.6399 10.0848 20.5042 9.99421 20.39 9.88001L18.39 7.88001L16.28 10L18.28 12C18.5114 12.2324 18.6414 12.547 18.6414 12.875C18.6414 13.203 18.5114 13.5176 18.28 13.75C18.0446 13.9797 17.7288 14.1082 17.4 14.1082C17.0711 14.1082 16.7553 13.9797 16.52 13.75L14.52 11.75L11.68 14.63Z" stroke="#A1ABB9" stroke-linecap="round" stroke-linejoin="round"/>
<path d="M8.49996 15.38C9.41996 16.31 9.72996 17.51 8.80996 18.38C7.88996 19.25 6.68996 19 5.75996 18.07C4.82996 17.14 4.51996 16 5.44996 15.07C6.37996 14.14 7.56996 14.46 8.49996 15.38Z" stroke="#A1ABB9" stroke-linecap="round" stroke-linejoin="round"/>
</svg>
