<svg width="24" height="24" viewBox="0 0 24 24" fill="none" xmlns="http://www.w3.org/2000/svg">
<path d="M10.6 3.90999C10.6013 3.61762 10.5448 3.32786 10.4339 3.05736C10.3229 2.78687 10.1596 2.54095 9.9533 2.33375C9.74702 2.12654 9.50184 1.96212 9.23185 1.84993C8.96185 1.73774 8.67235 1.67999 8.37997 1.67999H3.91997C3.6276 1.67999 3.3381 1.73774 3.0681 1.84993C2.7981 1.96212 2.55293 2.12654 2.34665 2.33375C2.14037 2.54095 1.97706 2.78687 1.86608 3.05736C1.75511 3.32786 1.69866 3.61762 1.69997 3.90999V8.53999C1.69866 8.83237 1.75511 9.12212 1.86608 9.39262C1.97706 9.66312 2.14037 9.90903 2.34665 10.1162C2.55293 10.3234 2.7981 10.4879 3.0681 10.6001C3.3381 10.7122 3.6276 10.77 3.91997 10.77H8.37997C8.67235 10.77 8.96185 10.7122 9.23185 10.6001C9.50184 10.4879 9.74702 10.3234 9.9533 10.1162C10.1596 9.90903 10.3229 9.66312 10.4339 9.39262C10.5448 9.12212 10.6013 8.83237 10.6 8.53999V3.90999Z" stroke="#A1ABB9" stroke-linecap="round" stroke-linejoin="round"/>
<path d="M8.0001 17C8.0001 16.7613 7.90528 16.5324 7.73649 16.3636C7.56771 16.1948 7.33879 16.1 7.1001 16.1H5.2501C5.0114 16.1 4.78248 16.1948 4.6137 16.3636C4.44492 16.5324 4.3501 16.7613 4.3501 17V21.6C4.3501 21.8387 4.44492 22.0676 4.6137 22.2364C4.78248 22.4052 5.0114 22.5 5.2501 22.5H7.0501C7.28879 22.5 7.51771 22.4052 7.68649 22.2364C7.85528 22.0676 7.9501 21.8387 7.9501 21.6L8.0001 17Z" stroke="#A1ABB9" stroke-linecap="round" stroke-linejoin="round"/>
<path d="M6.1499 16.11V10.77" stroke="#A1ABB9" stroke-linecap="round" stroke-linejoin="round"/>
<path d="M4.52002 4.53998V7.91998" stroke="#A1ABB9" stroke-linecap="round" stroke-linejoin="round"/>
<path d="M7.78003 4.53998V7.91998" stroke="#A1ABB9" stroke-linecap="round" stroke-linejoin="round"/>
<path d="M22.3 6.32001C22.3297 5.66923 22.2271 5.01919 21.9985 4.40917C21.7699 3.79914 21.4201 3.24178 20.97 2.77077C20.52 2.29975 19.9792 1.92485 19.3802 1.66871C18.7812 1.41258 18.1365 1.28052 17.485 1.28052C16.8336 1.28052 16.1889 1.41258 15.5899 1.66871C14.9909 1.92485 14.4501 2.29975 14 2.77077C13.55 3.24178 13.2001 3.79914 12.9715 4.40917C12.7429 5.01919 12.6404 5.66923 12.67 6.32001V6.51001C12.7265 7.74906 13.2585 8.91865 14.1553 9.77551C15.0521 10.6324 16.2447 11.1105 17.485 11.1105C18.7254 11.1105 19.918 10.6324 20.8148 9.77551C21.7116 8.91865 22.2436 7.74906 22.3 6.51001V6.32001Z" stroke="#A1ABB9" stroke-linecap="round" stroke-linejoin="round"/>
<path d="M19.2899 17.2C19.2899 16.9613 19.1951 16.7324 19.0263 16.5636C18.8576 16.3948 18.6286 16.3 18.3899 16.3H16.5899C16.3512 16.3 16.1223 16.3948 15.9535 16.5636C15.7848 16.7324 15.6899 16.9613 15.6899 17.2V21.6C15.6899 21.8387 15.7848 22.0676 15.9535 22.2364C16.1223 22.4052 16.3512 22.5 16.5899 22.5H18.3899C18.6286 22.5 18.8576 22.4052 19.0263 22.2364C19.1951 22.0676 19.2899 21.8387 19.2899 21.6V17.2Z" stroke="#A1ABB9" stroke-linecap="round" stroke-linejoin="round"/>
<path d="M17.49 16.3V11.3" stroke="#A1ABB9" stroke-linecap="round" stroke-linejoin="round"/>
</svg>
