<svg width="24" height="24" viewBox="0 0 24 24" fill="none" xmlns="http://www.w3.org/2000/svg">
<path d="M2.83008 22.5V14.62H4.46008C4.83502 14.6119 5.19793 14.7525 5.46959 15.0111C5.74125 15.2696 5.8996 15.6251 5.91008 16V21.1C5.90219 21.4775 5.74531 21.8366 5.47366 22.0989C5.20201 22.3612 4.83765 22.5054 4.46008 22.5H2.83008Z" stroke="#A1ABB9" stroke-linecap="round" stroke-linejoin="round"/>
<path d="M5.91016 18.57H9.91016C11.2674 18.549 12.562 17.995 13.5143 17.0277C14.4666 16.0604 15.0003 14.7574 15.0002 13.4V9.60999" stroke="#A1ABB9" stroke-linecap="round" stroke-linejoin="round"/>
<path d="M20.48 6.82L19.17 1.5H10.81L9.5 6.82H20.48Z" stroke="#A1ABB9" stroke-linecap="round" stroke-linejoin="round"/>
<path d="M9.50006 6.82001H20.5001L21.1901 9.60001H8.81006L9.50006 6.82001Z" stroke="#A1ABB9" stroke-linecap="round" stroke-linejoin="round"/>
</svg>
