<svg width="24" height="24" viewBox="0 0 24 24" fill="none" xmlns="http://www.w3.org/2000/svg">
<path d="M22.5 20.32H1.50001C1.49861 19.7497 1.61012 19.1849 1.82809 18.658C2.04606 18.1311 2.36619 17.6525 2.77001 17.25C2.77001 17.25 6.87001 13.59 8.92001 12.86C10.9171 12.1803 13.0829 12.1803 15.08 12.86C17.08 13.59 21.23 17.25 21.23 17.25C21.6338 17.6525 21.954 18.1311 22.1719 18.658C22.3899 19.1849 22.5014 19.7497 22.5 20.32Z" stroke="#A1ABB9" stroke-linecap="round" stroke-linejoin="round"/>
<path d="M9.25 6.41998C9.25 5.87609 9.41129 5.3444 9.71346 4.89217C10.0156 4.43993 10.4451 4.08746 10.9476 3.87932C11.4501 3.67117 12.0031 3.61672 12.5365 3.72282C13.0699 3.82893 13.5599 4.09085 13.9445 4.47544C14.3291 4.86003 14.5911 5.35004 14.6972 5.88349C14.8033 6.41693 14.7488 6.96987 14.5407 7.47236C14.3325 7.97486 13.9801 8.40435 13.5278 8.70653C13.0756 9.0087 12.5439 9.16998 12 9.16998" stroke="#A1ABB9" stroke-linecap="round" stroke-linejoin="round"/>
<path d="M12 9.16998V12.35" stroke="#A1ABB9" stroke-linecap="round" stroke-linejoin="round"/>
</svg>
