<svg width="24" height="24" viewBox="0 0 24 24" fill="none" xmlns="http://www.w3.org/2000/svg">
<path d="M4.06996 9.99999V5.99999C4.06732 5.81136 4.10203 5.62407 4.17208 5.44892C4.24214 5.27376 4.34616 5.1142 4.47815 4.97942C4.61014 4.84464 4.76749 4.7373 4.94115 4.6636C5.1148 4.5899 5.30132 4.55129 5.48996 4.54999H10.86C11.0486 4.55129 11.2351 4.5899 11.4088 4.6636C11.5824 4.7373 11.7398 4.84464 11.8718 4.97942C12.0038 5.1142 12.1078 5.27376 12.1778 5.44892C12.2479 5.62407 12.2826 5.81136 12.28 5.99999V10.61C12.2903 10.6963 12.2903 10.7836 12.28 10.87C10.5535 10.785 8.82588 11.0119 7.17996 11.54V11.39C7.17607 11.2035 7.13546 11.0196 7.06048 10.8488C6.98549 10.678 6.87759 10.5237 6.74293 10.3946C6.60828 10.2655 6.44951 10.1642 6.27571 10.0965C6.1019 10.0288 5.91645 9.99601 5.72996 9.99999H4.06996Z" stroke="#A1ABB9" stroke-linecap="round" stroke-linejoin="round"/>
<path d="M12.3101 10.84C12.3003 10.7536 12.3003 10.6664 12.3101 10.58V6.00002C12.3101 5.62514 12.4583 5.26546 12.7225 4.99944C12.9866 4.73343 13.3452 4.58266 13.7201 4.58002H19.1001C19.4707 4.59038 19.8227 4.74424 20.082 5.00915C20.3414 5.27406 20.4877 5.62932 20.4901 6.00002V10H18.2701C17.8952 10 17.5355 10.1482 17.2695 10.4124C17.0035 10.6765 16.8527 11.0351 16.8501 11.41V11.48C15.4005 11.0332 13.886 10.8338 12.3701 10.89L12.3101 10.84Z" stroke="#A1ABB9" stroke-linecap="round" stroke-linejoin="round"/>
<path d="M7.1499 13.92V11.51C8.79582 10.9819 10.5235 10.755 12.2499 10.84H12.3699C13.8858 10.7837 15.4003 10.9832 16.8499 11.43V13.92H7.1499Z" stroke="#A1ABB9" stroke-linecap="round" stroke-linejoin="round"/>
<path d="M21.09 16.94H2.91C2.53604 16.94 2.17741 16.7914 1.91298 16.527C1.64855 16.2626 1.5 15.904 1.5 15.53V11.36C1.51296 10.9948 1.66721 10.6489 1.93025 10.3951C2.19328 10.1414 2.54455 9.99977 2.91 10H5.73C6.10488 9.99999 6.46456 10.1482 6.73057 10.4124C6.99659 10.6765 7.14736 11.0351 7.15 11.41V13.97H16.85V11.36C16.8655 10.9939 17.0219 10.6479 17.2865 10.3945C17.5512 10.141 17.9036 9.99967 18.27 10H21.09C21.464 10 21.8226 10.1486 22.087 10.413C22.3514 10.6774 22.5 11.036 22.5 11.41V15.58C22.487 15.9452 22.3328 16.2911 22.0698 16.5449C21.8067 16.7986 21.4555 16.9402 21.09 16.94Z" stroke="#A1ABB9" stroke-linecap="round" stroke-linejoin="round"/>
<path d="M7.1599 16.94H4.1499V19.44H7.1599V16.94Z" stroke="#A1ABB9" stroke-linecap="round" stroke-linejoin="round"/>
<path d="M19.8501 16.94H16.8401V19.44H19.8501V16.94Z" stroke="#A1ABB9" stroke-linecap="round" stroke-linejoin="round"/>
</svg>
