<svg width="24" height="24" viewBox="0 0 24 24" fill="none" xmlns="http://www.w3.org/2000/svg">
<path d="M19.4801 9.76001C20.9501 10.13 22.3101 10.81 22.4801 11.43C22.7701 12.51 20.0401 15.54 18.2701 16.01C17.6927 16.1653 17.0841 16.1618 16.5086 15.9999C15.933 15.838 15.4118 15.5236 15.0001 15.09C14.6166 14.6872 14.3384 14.1961 14.1901 13.66L14.1301 13.37C14.3601 13.4236 14.5943 13.457 14.8301 13.47C15.0933 13.5749 15.3689 13.6455 15.6501 13.68C16.2996 13.7493 16.9552 13.6271 17.5362 13.3286C18.1171 13.0302 18.5982 12.5683 18.9201 12C19.2649 11.302 19.4559 10.5381 19.4801 9.76001Z" stroke="#A1ABB9" stroke-linecap="round" stroke-linejoin="round"/>
<path d="M4.52009 9.76001C3.05009 10.13 1.69009 10.81 1.52009 11.43C1.23009 12.51 4.00009 15.54 5.73009 16C6.3066 16.1566 6.91467 16.1546 7.49018 15.9945C8.06569 15.8343 8.58733 15.5219 9.00009 15.09C9.38363 14.6872 9.66186 14.1961 9.81009 13.66L9.87009 13.37C9.6401 13.4236 9.40589 13.457 9.17009 13.47C8.90691 13.5749 8.63131 13.6455 8.35009 13.68C7.7006 13.7493 7.04504 13.6271 6.46406 13.3286C5.88307 13.0302 5.40202 12.5683 5.08009 12C4.7353 11.302 4.54433 10.5381 4.52009 9.76001Z" stroke="#A1ABB9" stroke-linecap="round" stroke-linejoin="round"/>
<path d="M4.52005 9.76001C4.40005 8.06001 4.71005 6.18001 5.34005 5.82001C5.97005 5.46001 7.47005 6.02001 8.81005 6.82001C8.33716 7.70027 8.06081 8.67262 8.00005 9.67001C8.00015 10.3536 8.17243 11.0262 8.501 11.6257C8.82957 12.2251 9.30385 12.7322 9.88005 13.1L9.63005 13.25C9.48832 13.3392 9.33746 13.4129 9.18005 13.47C8.91687 13.5749 8.64127 13.6455 8.36005 13.68C7.70896 13.7513 7.05125 13.6301 6.46829 13.3316C5.88532 13.033 5.40268 12.57 5.08005 12C4.73525 11.302 4.54429 10.5381 4.52005 9.76001Z" stroke="#A1ABB9" stroke-linecap="round" stroke-linejoin="round"/>
<path d="M15.1901 6.84999C16.5301 6.01999 18.0801 5.47999 18.6601 5.84999C19.2401 6.21999 19.6001 8.08999 19.4801 9.78999C19.4516 10.5579 19.2608 11.3111 18.9201 12C18.5943 12.5653 18.1101 13.0229 17.5272 13.3161C16.9443 13.6094 16.2882 13.7254 15.6401 13.65C15.358 13.6203 15.0818 13.5496 14.8201 13.44C14.6627 13.3829 14.5119 13.3091 14.3701 13.22C14.2834 13.1759 14.1998 13.1258 14.1201 13.07C14.6921 12.7049 15.1637 12.2026 15.492 11.6088C15.8203 11.015 15.995 10.3485 16.0001 9.66999C15.9351 8.68285 15.6589 7.72117 15.1901 6.84999Z" stroke="#A1ABB9" stroke-linecap="round" stroke-linejoin="round"/>
<path d="M8.81 6.85001C9.71 5.00001 11.13 3.32001 12 3.32001C12.87 3.32001 14.29 5.00001 15.19 6.85001C15.6588 7.72119 15.935 8.68286 16 9.67001C16 10.7309 15.5786 11.7483 14.8284 12.4984C14.0783 13.2486 13.0609 13.67 12 13.67C10.9391 13.67 9.92172 13.2486 9.17157 12.4984C8.42143 11.7483 8 10.7309 8 9.67001C8.06502 8.68286 8.34125 7.72119 8.81 6.85001Z" stroke="#A1ABB9" stroke-linecap="round" stroke-linejoin="round"/>
<path d="M15 15.09C14.1 16.76 12.81 18.24 12 18.24C11.19 18.24 9.91 16.76 9 15.09C9.38558 14.6888 9.66411 14.1971 9.81 13.66L9.87 13.37C9.64326 13.4229 9.41242 13.4564 9.18 13.47C9.33334 13.4109 9.48068 13.3372 9.62 13.25C9.70676 13.206 9.7903 13.1559 9.87 13.1C10.5057 13.4974 11.2403 13.708 11.99 13.708C12.7397 13.708 13.4743 13.4974 14.11 13.1C14.1897 13.1559 14.2732 13.206 14.36 13.25C14.5017 13.3392 14.6526 13.4129 14.81 13.47C14.5742 13.4571 14.34 13.4236 14.11 13.37C14.11 13.47 14.11 13.56 14.18 13.66C14.328 14.1984 14.6101 14.6904 15 15.09Z" stroke="#A1ABB9" stroke-linecap="round" stroke-linejoin="round"/>
<path d="M6.52002 20C7.31002 20.19 7.89002 20.65 12 20.65C16.11 20.65 16.69 20.19 17.48 20" stroke="#A1ABB9" stroke-linecap="round" stroke-linejoin="round"/>
</svg>
