<svg width="24" height="24" viewBox="0 0 24 24" fill="none" xmlns="http://www.w3.org/2000/svg">
<path d="M20.86 17.09V12.16C20.8999 10.9721 20.7005 9.78832 20.2734 8.67912C19.8464 7.56992 19.2005 6.55798 18.3743 5.70354C17.5481 4.8491 16.5585 4.16963 15.4642 3.70557C14.37 3.24152 13.1936 3.00238 12.005 3.00238C10.8165 3.00238 9.64004 3.24152 8.54581 3.70557C7.45158 4.16963 6.46191 4.8491 5.6357 5.70354C4.80949 6.55798 4.16365 7.56992 3.73662 8.67912C3.30959 9.78832 3.11009 10.9721 3.15002 12.16V17.09" stroke="#A1ABB9" stroke-linecap="round" stroke-linejoin="round"/>
<path d="M10.6699 1.5H13.3299" stroke="#A1ABB9" stroke-linecap="round" stroke-linejoin="round"/>
<path d="M12 1.5V3.3" stroke="#A1ABB9" stroke-linecap="round" stroke-linejoin="round"/>
<path d="M22.0899 18.73C22.0912 18.5143 22.0497 18.3004 21.9678 18.1008C21.8858 17.9013 21.7651 17.7199 21.6125 17.5674C21.46 17.4148 21.2787 17.2941 21.0791 17.2121C20.8795 17.1302 20.6657 17.0887 20.4499 17.09H3.54991C3.11496 17.09 2.69782 17.2628 2.39026 17.5703C2.0827 17.8779 1.90991 18.295 1.90991 18.73C1.90991 19.165 2.0827 19.5821 2.39026 19.8897C2.69782 20.1972 3.11496 20.37 3.54991 20.37H20.4499C20.6653 20.37 20.8785 20.3276 21.0775 20.2452C21.2765 20.1627 21.4573 20.0419 21.6096 19.8897C21.7619 19.7374 21.8827 19.5566 21.9651 19.3576C22.0475 19.1586 22.0899 18.9454 22.0899 18.73Z" stroke="#A1ABB9" stroke-linecap="round" stroke-linejoin="round"/>
<path d="M10.1 17C9.70324 16.9701 9.309 16.9133 8.91997 16.83C8.69758 16.7975 8.48741 16.7079 8.30997 16.57C8.17278 16.4005 8.06772 16.2073 7.99997 16C7.81683 15.4908 7.70249 14.9594 7.65997 14.42C7.6 13.7847 7.6 13.1453 7.65997 12.51C7.70064 11.967 7.81502 11.4321 7.99997 10.92C8.07633 10.7021 8.19531 10.5015 8.34997 10.33C8.88881 10.0442 9.49007 9.8965 10.1 9.9C11.16 9.81 12.29 9.81 12.29 9.81H12.69C13.03 9.81 13.46 9.81 13.9 9.87C14.5274 9.85718 15.1464 10.0163 15.69 10.33C15.8923 10.5643 16.0393 10.8411 16.12 11.14C16.2109 11.4307 16.2778 11.7283 16.32 12.03C16.4599 12.9681 16.4599 13.9219 16.32 14.86C16.2749 15.4748 16.0565 16.0643 15.69 16.56C15.1464 16.8717 14.5261 17.0241 13.9 17C13.46 17 13.03 17.06 12.69 17.06H12.29C12.29 17.06 11.16 17.09 10.1 17Z" stroke="#A1ABB9" stroke-linecap="round" stroke-linejoin="round"/>
<path d="M13.8298 9.87002V8.27002C13.8615 7.99248 13.7843 7.71348 13.6147 7.49159C13.445 7.2697 13.1959 7.12219 12.9198 7.08002H11.0798C10.8037 7.12219 10.5546 7.2697 10.3849 7.49159C10.2153 7.71348 10.1381 7.99248 10.1698 8.27002V9.87002" stroke="#A1ABB9" stroke-linecap="round" stroke-linejoin="round"/>
<path d="M4.5 20.37V22.17" stroke="#A1ABB9" stroke-linecap="round" stroke-linejoin="round"/>
<path d="M19.5 20.37V22.17" stroke="#A1ABB9" stroke-linecap="round" stroke-linejoin="round"/>
</svg>
