<svg width="24" height="24" viewBox="0 0 24 24" fill="none" xmlns="http://www.w3.org/2000/svg">
<path d="M3.21 19.75C2.88184 19.6262 2.57741 19.4469 2.31 19.22C1.5 18.46 1.5 13.08 1.5 13.08C1.5 13.08 1.5 12.85 1.5 12.47C1.5 11.04 1.66 8.46998 2.3 7.83998C2.66821 7.53841 3.0933 7.31396 3.55 7.17998C3.99847 7.04326 4.45636 6.93965 4.92 6.86998C6.36575 6.66004 7.83425 6.66004 9.28 6.86998C10.2281 6.95859 11.134 7.30435 11.9 7.86998C12.54 8.46998 12.67 11.07 12.7 12.5V13.11C12.7076 14.848 12.5738 16.5837 12.3 18.3C12.2442 18.644 12.107 18.9696 11.9 19.25C11.6303 19.4789 11.3222 19.6584 10.99 19.78C10.2077 20.0656 9.39022 20.2439 8.56 20.31C7.58541 20.4 6.60459 20.4 5.63 20.31C4.80194 20.2322 3.98803 20.0439 3.21 19.75Z" stroke="#A1ABB9" stroke-linecap="round" stroke-linejoin="round"/>
<path d="M15.5001 22.27C15.0638 22.2286 14.6299 22.1652 14.2001 22.08C13.9528 22.0416 13.719 21.9419 13.5201 21.79C13.3568 21.5969 13.2283 21.377 13.1401 21.14C12.9366 20.5795 12.8088 19.9943 12.7601 19.4C12.7001 18.698 12.7001 17.9921 12.7601 17.29C12.8088 16.6957 12.9366 16.1105 13.1401 15.55C13.2305 15.3141 13.3589 15.0945 13.5201 14.9C14.138 14.5814 14.8249 14.4199 15.5201 14.43L15.5001 22.27Z" stroke="#A1ABB9" stroke-linecap="round" stroke-linejoin="round"/>
<path d="M15.5 14.43C16.68 14.32 17.93 14.32 17.93 14.32H18.37C18.74 14.32 19.23 14.32 19.71 14.38V22.3C19.23 22.3 18.71 22.36 18.37 22.37H17.93C17.93 22.37 16.68 22.37 15.5 22.27V14.43Z" stroke="#A1ABB9" stroke-linecap="round" stroke-linejoin="round"/>
<path d="M19.71 14.39C20.4107 14.3738 21.1025 14.5502 21.71 14.9C21.9298 15.1625 22.0902 15.4696 22.18 15.8C22.2844 16.1263 22.3613 16.4608 22.41 16.8C22.56 17.8379 22.56 18.8921 22.41 19.93C22.3532 20.6089 22.1111 21.2593 21.71 21.81C21.1043 22.1642 20.4113 22.341 19.71 22.32V14.39Z" stroke="#A1ABB9" stroke-linecap="round" stroke-linejoin="round"/>
<path d="M19.6399 14.39V12C19.6399 11.7348 19.5345 11.4804 19.347 11.2929C19.1595 11.1054 18.9051 11 18.6399 11H16.6399C16.3747 11 16.1203 11.1054 15.9328 11.2929C15.7452 11.4804 15.6399 11.7348 15.6399 12V14.36" stroke="#A1ABB9" stroke-linecap="round" stroke-linejoin="round"/>
<path d="M9.28993 6.87V2.72C9.28993 2.57686 9.26174 2.43512 9.20696 2.30288C9.15218 2.17064 9.07189 2.05047 8.97068 1.94926C8.86946 1.84804 8.7493 1.76775 8.61706 1.71298C8.48481 1.6582 8.34307 1.63 8.19993 1.63H5.99993C5.71433 1.63525 5.44219 1.75239 5.24208 1.95624C5.04197 2.16009 4.92988 2.43435 4.92993 2.72V6.87" stroke="#A1ABB9" stroke-linecap="round" stroke-linejoin="round"/>
<path d="M3.42993 21.66V19.94" stroke="#A1ABB9" stroke-linecap="round" stroke-linejoin="round"/>
<path d="M10.79 21.66V19.94" stroke="#A1ABB9" stroke-linecap="round" stroke-linejoin="round"/>
</svg>
