<svg width="24" height="24" viewBox="0 0 24 24" fill="none" xmlns="http://www.w3.org/2000/svg">
<path d="M10.78 16.23C9.35721 16.1548 7.97859 15.7102 6.77997 14.94C6.2013 14.4277 5.79305 13.7508 5.60997 13C5.35413 11.6415 5.22358 10.2624 5.21997 8.87999V8.41999C5.22828 7.0722 5.39271 5.72992 5.70997 4.41999C5.88526 3.7971 6.23171 3.23585 6.70997 2.79999C7.28061 2.37005 7.93447 2.06355 8.62997 1.89999C10.5977 1.43661 12.6392 1.37877 14.63 1.72999C15.5648 1.88768 16.449 2.26464 17.21 2.82999C17.6882 3.26585 18.0347 3.8271 18.21 4.44999C18.5272 5.75992 18.6917 7.1022 18.7 8.44999V8.91999C18.6961 10.2957 18.5655 11.6682 18.31 13.02C18.1394 13.7717 17.7414 14.4526 17.17 14.97C15.9713 15.7402 14.5927 16.1848 13.17 16.26L13.72 20.76C13.72 20.9924 13.6742 21.2226 13.5852 21.4373C13.4963 21.6521 13.3659 21.8472 13.2016 22.0116C13.0372 22.1759 12.8421 22.3063 12.6273 22.3953C12.4126 22.4842 12.1824 22.53 11.95 22.53C11.7175 22.53 11.4874 22.4842 11.2726 22.3953C11.0579 22.3063 10.8628 22.1759 10.6984 22.0116C10.534 21.8472 10.4037 21.6521 10.3147 21.4373C10.2258 21.2226 10.18 20.9924 10.18 20.76L10.78 16.23Z" stroke="#A1ABB9" stroke-linecap="round" stroke-linejoin="round"/>
<path d="M15.9 12.34C15.8658 12.5735 15.7651 12.7922 15.61 12.97C14.4 13.97 9.61004 13.97 8.39004 12.97C7.79004 12.47 7.79004 8.88999 7.79004 8.88999C7.79004 8.88999 7.79004 8.73999 7.79004 8.48999C7.79004 7.48999 7.91004 5.20999 8.38004 4.81999C8.66402 4.61114 8.98708 4.46151 9.33004 4.37999C11.18 3.84999 14.61 3.99999 15.6 4.81999C16.07 5.20999 16.17 7.52999 16.19 8.48999C16.19 8.73999 16.19 8.88999 16.19 8.88999C16.2024 10.0466 16.1053 11.2017 15.9 12.34Z" stroke="#A1ABB9" stroke-linecap="round" stroke-linejoin="round"/>
<path d="M10.7 8.22998L12 6.91998" stroke="#A1ABB9" stroke-linecap="round" stroke-linejoin="round"/>
<path d="M12 10.41L13.3 9.10999" stroke="#A1ABB9" stroke-linecap="round" stroke-linejoin="round"/>
</svg>
