<svg width="24" height="24" viewBox="0 0 24 24" fill="none" xmlns="http://www.w3.org/2000/svg">
<path d="M1.52979 14.12C1.52979 12.84 1.52979 11.12 1.52979 9.88C2.88401 9.64264 4.13346 8.99739 5.11098 8.03059C6.08851 7.06378 6.74749 5.82153 6.99979 4.47C7.87979 4.47 8.68979 4.39 9.24979 4.38H9.99979C9.99979 4.38 14.3898 4.38 16.9998 4.5C17.2563 5.84663 17.9172 7.08303 18.8946 8.04428C19.8719 9.00552 21.1191 9.64591 22.4698 9.88C22.4698 11.16 22.4698 12.88 22.4698 14.12C21.1191 14.3541 19.8719 14.9945 18.8946 15.9557C17.9172 16.917 17.2563 18.1534 16.9998 19.5C14.4298 19.62 9.99979 19.62 9.99979 19.62H9.25979C8.69979 19.62 7.88979 19.62 7.00979 19.53C6.75686 18.1771 6.09639 16.9338 5.11693 15.9669C4.13747 14.9999 2.88583 14.3555 1.52979 14.12Z" stroke="#A1ABB9" stroke-linecap="round" stroke-linejoin="round"/>
<path d="M1.52989 9.88002C1.52989 9.48002 1.52989 9.11002 1.52989 8.82002C1.48695 7.63273 1.70899 6.45078 2.17989 5.36002C2.62989 4.90002 4.38989 4.65002 6.11989 4.52002H6.96989C6.7091 5.85769 6.05009 7.0853 5.0793 8.04181C4.10851 8.99833 2.87127 9.63908 1.52989 9.88002Z" stroke="#A1ABB9" stroke-linecap="round" stroke-linejoin="round"/>
<path d="M6.99992 19.53L6.14992 19.48C4.41992 19.35 2.65992 19.1 2.20992 18.64C1.73902 17.5492 1.51697 16.3673 1.55992 15.18C1.55992 14.88 1.55992 14.52 1.55992 14.12C2.90867 14.3629 4.15153 15.0106 5.12326 15.977C6.09499 16.9433 6.74955 18.1826 6.99992 19.53Z" stroke="#A1ABB9" stroke-linecap="round" stroke-linejoin="round"/>
<path d="M22.47 14.12C22.47 14.52 22.47 14.88 22.47 15.18C22.5129 16.3673 22.2909 17.5492 21.82 18.64C21.4 19.07 19.68 19.32 17.89 19.45L17 19.5C17.2565 18.1534 17.9175 16.917 18.8948 15.9557C19.8721 14.9945 21.1193 14.3541 22.47 14.12Z" stroke="#A1ABB9" stroke-linecap="round" stroke-linejoin="round"/>
<path d="M17 4.5H17.85C19.64 4.63 21.36 4.88 21.78 5.31C22.2509 6.40076 22.4729 7.58271 22.43 8.77C22.43 9.07 22.43 9.43 22.43 9.83C21.0934 9.59183 19.8599 8.95556 18.891 8.0045C17.9221 7.05345 17.263 5.83196 17 4.5Z" stroke="#A1ABB9" stroke-linecap="round" stroke-linejoin="round"/>
<path d="M14.9998 9.00003C15.7179 9.83463 16.1127 10.8991 16.1127 12C16.1127 13.101 15.7179 14.1654 14.9998 15C14.1652 15.718 13.1008 16.1129 11.9998 16.1129C10.8989 16.1129 9.83444 15.718 8.99984 15C8.28183 14.1654 7.88696 13.101 7.88696 12C7.88696 10.8991 8.28183 9.83463 8.99984 9.00003C9.83444 8.28201 10.8989 7.88715 11.9998 7.88715C13.1008 7.88715 14.1652 8.28201 14.9998 9.00003Z" stroke="#A1ABB9" stroke-linecap="round" stroke-linejoin="round"/>
</svg>
