<svg width="24" height="24" viewBox="0 0 24 24" fill="none" xmlns="http://www.w3.org/2000/svg">
<path d="M19.4699 18.6C19.3972 19.0458 19.1995 19.4619 18.8999 19.8C16.5999 21.71 7.39994 21.71 5.09994 19.8C3.93994 18.8 3.93994 12 3.93994 12C3.93994 12 3.93994 11.7 3.93994 11.22C3.99994 9.39997 4.17994 4.99997 5.09994 4.19997C5.63773 3.80241 6.2498 3.51677 6.89994 3.35997C10.4599 2.35997 17.0099 2.62997 18.8999 4.19997C19.8199 4.95997 20.0099 9.39997 20.0499 11.2C20.0499 11.68 20.0499 11.98 20.0499 11.98C20.0654 14.2 19.8712 16.4165 19.4699 18.6Z" stroke="#A1ABB9" stroke-linecap="round" stroke-linejoin="round"/>
<path d="M9.23999 16.9H14.76" stroke="#A1ABB9" stroke-linecap="round" stroke-linejoin="round"/>
<path d="M8 10.35C8 9.55885 8.2346 8.78549 8.67412 8.1277C9.11365 7.4699 9.73836 6.95721 10.4693 6.65446C11.2002 6.35171 12.0044 6.2725 12.7804 6.42684C13.5563 6.58118 14.269 6.96214 14.8284 7.52155C15.3878 8.08096 15.7688 8.79369 15.9231 9.56962C16.0775 10.3455 15.9983 11.1498 15.6955 11.8807C15.3928 12.6116 14.8801 13.2363 14.2223 13.6759C13.5645 14.1154 12.7911 14.35 12 14.35C10.9391 14.35 9.92172 13.9285 9.17157 13.1784C8.42143 12.4283 8 11.4108 8 10.35Z" stroke="#A1ABB9" stroke-linecap="round" stroke-linejoin="round"/>
<path d="M10.3298 10.35C10.3298 8.13998 11.0798 6.34998 11.9998 6.34998C12.9198 6.34998 13.6698 8.13998 13.6698 10.35C13.6698 12.56 12.9198 14.35 11.9998 14.35C11.0798 14.35 10.3298 12.55 10.3298 10.35Z" stroke="#A1ABB9" stroke-linecap="round" stroke-linejoin="round"/>
<path d="M13.6598 10.35H10.3298" stroke="#A1ABB9" stroke-linecap="round" stroke-linejoin="round"/>
</svg>
