<svg width="24" height="24" viewBox="0 0 24 24" fill="none" xmlns="http://www.w3.org/2000/svg">
<path d="M11.4 12.4V5.5H1.5V14.3C1.5 15.7 2.6 16.8 4 16.8H8.4C8.4 16.7 8.4 16.5 8.4 16.4C8.3 14.7 9.5 13.3 11.4 12.4Z" stroke="#A1ABB9" stroke-miterlimit="10" stroke-linecap="round" stroke-linejoin="round"/>
<path d="M6.3999 9.50001L5.0999 8.20001L3.8999 9.50001V11.4H6.4999V9.50001H6.3999Z" stroke="#A1ABB9" stroke-miterlimit="10" stroke-linecap="round" stroke-linejoin="round"/>
<path d="M5.1001 8.2V5.5" stroke="#A1ABB9" stroke-miterlimit="10" stroke-linecap="round" stroke-linejoin="round"/>
<path d="M11.3999 8.09998H13.3999C14.3999 8.09998 15.1999 8.89997 15.1999 9.89997V11.7C13.7999 11.7 12.4999 12 11.4999 12.5C11.3999 12.4 11.3999 8.09998 11.3999 8.09998Z" stroke="#A1ABB9" stroke-miterlimit="10" stroke-linecap="round" stroke-linejoin="round"/>
<path d="M15.1 11.6C15.2 11.6 15.3 11.6 15.4 11.6C19.3 11.6 22.5 13.8 22.5 16.4C22.5 17.4 22 18.1 21.2 18.5H9.60005C8.90005 18.2 8.50005 17.6 8.30005 16.9C8.30005 16.8 8.30005 16.6 8.30005 16.5C8.30005 14.9 9.50005 13.4 11.4 12.6C12.4 11.9 13.7 11.6 15.1 11.6Z" stroke="#A1ABB9" stroke-miterlimit="10" stroke-linecap="round" stroke-linejoin="round"/>
<path d="M14.7 14C14.7 14 14.7 12.8 16 11.6" stroke="#A1ABB9" stroke-miterlimit="10" stroke-linecap="round" stroke-linejoin="round"/>
<path d="M17.2999 14.4C17.2999 14.4 17.1999 13.2 18.5999 12.1" stroke="#A1ABB9" stroke-miterlimit="10" stroke-linecap="round" stroke-linejoin="round"/>
<path d="M12.2 14.3C12.2 14.3 12.2 12.9 13.5 11.7" stroke="#A1ABB9" stroke-miterlimit="10" stroke-linecap="round" stroke-linejoin="round"/>
</svg>
