<svg width="24" height="24" viewBox="0 0 24 24" fill="none" xmlns="http://www.w3.org/2000/svg">
<path d="M12.0001 19.12C19.4501 19.12 22.0001 17.93 22.0001 17.93C22.1397 17.8864 22.2613 17.7982 22.3461 17.6791C22.431 17.5599 22.4745 17.4162 22.4701 17.27C22.1901 9.96996 19.3301 6.26996 11.9701 6.26996C4.61007 6.26996 1.78007 9.99996 1.50007 17.27C1.4956 17.4162 1.53913 17.5599 1.624 17.6791C1.70886 17.7982 1.83041 17.8864 1.97007 17.93C1.97007 17.93 4.55007 19.12 12.0001 19.12Z" stroke="#A1ABB9" stroke-linecap="round" stroke-linejoin="round"/>
<path d="M2.06006 21C3.50006 21.35 4.55006 22.17 12.0001 22.17C19.4501 22.17 20.5001 21.34 21.9401 21" stroke="#A1ABB9" stroke-linecap="round" stroke-linejoin="round"/>
<path d="M8.89014 3.51998C8.89014 2.51998 9.56014 1.78998 12.0001 1.78998C14.4401 1.78998 15.1101 2.56998 15.1101 3.51998" stroke="#A1ABB9" stroke-linecap="round" stroke-linejoin="round"/>
<path d="M12 1.78998V6.29998" stroke="#A1ABB9" stroke-linecap="round" stroke-linejoin="round"/>
</svg>
