<svg width="24" height="24" viewBox="0 0 24 24" fill="none" xmlns="http://www.w3.org/2000/svg">
<path d="M15.62 14.31C15.8008 14.3087 15.98 14.3431 16.1473 14.4114C16.3147 14.4796 16.4669 14.5803 16.5952 14.7077C16.7235 14.835 16.8253 14.9865 16.8948 15.1534C16.9642 15.3202 17 15.4992 17 15.68V21.09C17 21.2699 16.9646 21.448 16.8957 21.6142C16.8269 21.7805 16.726 21.9315 16.5987 22.0587C16.4715 22.1859 16.3205 22.2868 16.1543 22.3557C15.9881 22.4245 15.8099 22.46 15.63 22.46H2.87C2.50665 22.46 2.15819 22.3156 1.90126 22.0587C1.64434 21.8018 1.5 21.4533 1.5 21.09V15.68C1.5 15.3166 1.64434 14.9682 1.90126 14.7112C2.15819 14.4543 2.50665 14.31 2.87 14.31H15.62Z" stroke="#A1ABB9" stroke-linecap="round" stroke-linejoin="round"/>
<path d="M15.17 6.08998C15.1093 5.81411 15.0791 5.53243 15.08 5.24998C15.0795 4.41659 15.3597 3.60733 15.8753 2.95261C16.3909 2.29789 17.112 1.83584 17.9223 1.64093C18.7325 1.44601 19.5848 1.52958 20.3418 1.87817C21.0988 2.22676 21.7163 2.82007 22.095 3.56248C22.4736 4.30489 22.5912 5.15315 22.4289 5.97058C22.2666 6.788 21.8338 7.52697 21.2003 8.06841C20.5667 8.60984 19.7693 8.92219 18.9366 8.95513C18.1039 8.98807 17.2843 8.73967 16.61 8.24998H14.22L15.17 6.08998Z" stroke="#A1ABB9" stroke-linecap="round" stroke-linejoin="round"/>
<path d="M3.76001 14.3099C3.76001 13.4299 3.85001 9.92995 4.29001 9.50995C5.29001 8.50995 9.51001 8.50995 10.56 9.50995C10.99 9.92995 11.07 13.4299 11.08 14.3099H3.76001Z" stroke="#A1ABB9" stroke-linecap="round" stroke-linejoin="round"/>
<path d="M7.41995 7.01001C8.64602 7.01001 9.63995 6.01608 9.63995 4.79001C9.63995 3.56394 8.64602 2.57001 7.41995 2.57001C6.19388 2.57001 5.19995 3.56394 5.19995 4.79001C5.19995 6.01608 6.19388 7.01001 7.41995 7.01001Z" stroke="#A1ABB9" stroke-linecap="round" stroke-linejoin="round"/>
</svg>
