<svg width="24" height="24" viewBox="0 0 24 24" fill="none" xmlns="http://www.w3.org/2000/svg">
<path d="M12.8601 3.66998V6.14998C12.8627 6.39225 12.9608 6.62369 13.1331 6.79407C13.3053 6.96444 13.5378 7.06 13.7801 7.05998H16.0001C16.2424 7.06 16.4749 6.96444 16.6471 6.79407C16.8194 6.62369 16.9175 6.39225 16.9201 6.14998V3.66998" stroke="#A1ABB9" stroke-linecap="round" stroke-linejoin="round"/>
<path d="M14.8799 7.06V12.46" stroke="#A1ABB9" stroke-linecap="round" stroke-linejoin="round"/>
<path d="M22.2799 9.24998C22.6162 8.03704 22.5779 6.75074 22.1699 5.55998C22.0339 5.04681 21.7411 4.58889 21.3324 4.25008C20.9237 3.91127 20.4194 3.70848 19.8899 3.66998V9.24998H22.2799Z" stroke="#A1ABB9" stroke-linecap="round" stroke-linejoin="round"/>
<path d="M19.8899 12.46V9.25" stroke="#A1ABB9" stroke-linecap="round" stroke-linejoin="round"/>
<path d="M14.69 20.33C14.5841 18.8521 13.9222 17.4693 12.8378 16.4597C11.7533 15.4502 10.3266 14.889 8.845 14.889C7.36337 14.889 5.93673 15.4502 4.85225 16.4597C3.76776 17.4693 3.10594 18.8521 3 20.33H14.69Z" stroke="#A1ABB9" stroke-linecap="round" stroke-linejoin="round"/>
<path d="M16.17 20.33H1.5" stroke="#A1ABB9" stroke-linecap="round" stroke-linejoin="round"/>
<path d="M8.83008 14.47V12.75" stroke="#A1ABB9" stroke-linecap="round" stroke-linejoin="round"/>
</svg>
