<svg width="24" height="24" viewBox="0 0 24 24" fill="none" xmlns="http://www.w3.org/2000/svg">
<path d="M19.7101 18.6C19.7566 18.6098 19.7987 18.6344 19.8301 18.67C20.0815 19.148 20.2128 19.68 20.2128 20.22C20.2128 20.7601 20.0815 21.292 19.8301 21.77C19.5801 22.03 17.7601 22.03 17.7601 22.03H17.5601C16.9265 22.0661 16.2919 21.9813 15.6901 21.78C15.3522 21.1716 15.2289 20.4671 15.3401 19.78C16.8536 19.6399 18.3317 19.2407 19.7101 18.6Z" stroke="#A1ABB9" stroke-linecap="round" stroke-linejoin="round"/>
<path d="M8.66009 19.74C8.77124 20.4271 8.64796 21.1315 8.31009 21.74C7.63896 21.9393 6.93967 22.0271 6.24009 22H6.00009C5.37005 22.0304 4.73975 21.9457 4.14009 21.75C3.88867 21.2702 3.75732 20.7367 3.75732 20.195C3.75732 19.6534 3.88867 19.1198 4.14009 18.64L4.26009 18.57C5.64651 19.2158 7.13602 19.6119 8.66009 19.74Z" stroke="#A1ABB9" stroke-linecap="round" stroke-linejoin="round"/>
<path d="M19.71 18.6C19.9541 18.469 20.1852 18.315 20.4 18.14C23.2 15.74 23.2 6.14003 20.4 3.77003C17.6 1.40003 6.4 1.37003 3.6 3.77003C0.8 6.17003 0.8 15.77 3.6 18.14C3.81483 18.315 4.04588 18.469 4.29 18.6C5.67083 19.2269 7.1489 19.6125 8.66 19.74C10.8791 20 13.1209 20 15.34 19.74C16.8511 19.6125 18.3292 19.2269 19.71 18.6Z" stroke="#A1ABB9" stroke-linecap="round" stroke-linejoin="round"/>
<path d="M11.05 12.09C10.7821 12.8227 10.2647 13.4377 9.58871 13.827C8.91268 14.2163 8.12113 14.3552 7.35295 14.2192C6.58477 14.0831 5.88902 13.6809 5.38778 13.0831C4.88654 12.4854 4.61182 11.7301 4.61182 10.95C4.61182 10.1699 4.88654 9.41467 5.38778 8.81687C5.88902 8.21908 6.58477 7.81689 7.35295 7.68087C8.12113 7.54484 8.91268 7.68368 9.58871 8.07302C10.2647 8.46235 10.7821 9.07731 11.05 9.81001V12.09Z" stroke="#A1ABB9" stroke-linecap="round" stroke-linejoin="round"/>
<path d="M7.83008 10.95H13.6301" stroke="#A1ABB9" stroke-linecap="round" stroke-linejoin="round"/>
</svg>
