<svg width="24" height="24" viewBox="0 0 24 24" fill="none" xmlns="http://www.w3.org/2000/svg">
<path d="M13.46 1.5H10.54V5.42H13.46V1.5Z" stroke="#A1ABB9" stroke-linecap="round" stroke-linejoin="round"/>
<path d="M9.88013 7.91998V5.41998H14.1201V7.91998C12.7108 7.76975 11.2895 7.76975 9.88013 7.91998Z" stroke="#A1ABB9" stroke-linecap="round" stroke-linejoin="round"/>
<path d="M14.1201 7.92003C15.3098 7.96346 16.4692 8.30749 17.4901 8.92003C18.2201 9.52003 18.3701 13.06 18.4001 14.51C18.4001 14.89 18.4001 15.12 18.4001 15.12C18.4086 16.8842 18.2512 18.6453 17.9301 20.38C17.8768 20.7341 17.7202 21.0645 17.4801 21.33C15.6501 22.85 8.33006 22.85 6.48006 21.33C5.56006 20.57 5.56006 15.12 5.56006 15.12C5.56006 15.12 5.56006 14.89 5.56006 14.51C5.56006 13.06 5.74006 9.51003 6.47006 8.92003C6.92975 8.60215 7.45095 8.38413 8.00006 8.28003C8.63257 8.1079 9.27803 7.98751 9.93006 7.92003C11.3229 7.77332 12.7272 7.77332 14.1201 7.92003Z" stroke="#A1ABB9" stroke-linecap="round" stroke-linejoin="round"/>
<path d="M10.5401 1.5H8.36011" stroke="#A1ABB9" stroke-linecap="round" stroke-linejoin="round"/>
<path d="M12 12.07C12 12.07 14 14.07 14 15.19C14 15.7204 13.7893 16.2291 13.4142 16.6042C13.0391 16.9793 12.5304 17.19 12 17.19C11.4696 17.19 10.9609 16.9793 10.5858 16.6042C10.2107 16.2291 10 15.7204 10 15.19C10 14.1 12 12.07 12 12.07Z" stroke="#A1ABB9" stroke-linecap="round" stroke-linejoin="round"/>
</svg>
