<svg width="24" height="24" viewBox="0 0 24 24" fill="none" xmlns="http://www.w3.org/2000/svg">
<path d="M6.18 11.76L1.5 10.76C1.9994 9.13015 2.70512 7.57084 3.6 6.11999C4.71 4.66999 9.17 3.73999 9.17 3.73999C9.17 4.49055 9.46816 5.21037 9.99889 5.7411C10.5296 6.27183 11.2494 6.56999 12 6.56999C12.7506 6.56999 13.4704 6.27183 14.0011 5.7411C14.5318 5.21037 14.83 4.49055 14.83 3.73999C14.83 3.73999 19.29 4.66999 20.4 6.11999C21.291 7.55516 21.9967 9.09744 22.5 10.71L17.82 11.71V20.21H6.18V11.76Z" stroke="#A1ABB9" stroke-linecap="round" stroke-linejoin="round"/>
<path d="M6.17993 8.35999V11.76" stroke="#A1ABB9" stroke-linecap="round" stroke-linejoin="round"/>
<path d="M17.8201 11.76V8.37" stroke="#A1ABB9" stroke-linecap="round" stroke-linejoin="round"/>
</svg>
