<svg width="24" height="24" viewBox="0 0 24 24" fill="none" xmlns="http://www.w3.org/2000/svg">
<path d="M4.25 12.88C4.25 12.34 4.25 12 4.25 12C4.25 12 4.25 4.21997 5.36 3.12997C7.57 0.999971 16.43 0.999971 18.65 3.12997C19.76 4.21997 19.76 12 19.76 12C19.76 12 19.76 12.34 19.76 12.88C19.76 14.95 19.54 20.01 18.66 20.88C16.43 23 7.57 23 5.35 20.87C4.47 20 4.28 15 4.25 12.88Z" stroke="#A1ABB9" stroke-linecap="round" stroke-linejoin="round"/>
<path d="M19.75 12.88C19.75 14.95 19.53 20.01 18.65 20.88C16.43 23 7.57 23 5.35 20.87C4.47 20.01 4.28 14.95 4.25 12.87C7.38 11.35 16.62 11.35 19.75 12.88Z" stroke="#A1ABB9" stroke-linecap="round" stroke-linejoin="round"/>
<path d="M15.5999 6.56994C15.5999 6.56994 15.5999 8.20994 15.0799 8.43994C13.0523 8.89997 10.9475 8.89997 8.9199 8.43994C8.3999 8.20994 8.3999 6.56994 8.3999 6.56994C8.3999 6.56994 8.3999 4.92994 8.9199 4.69994C10.9475 4.23991 13.0523 4.23991 15.0799 4.69994C15.5999 4.92994 15.5999 6.56994 15.5999 6.56994Z" stroke="#A1ABB9" stroke-linecap="round" stroke-linejoin="round"/>
</svg>
