<svg width="24" height="24" viewBox="0 0 24 24" fill="none" xmlns="http://www.w3.org/2000/svg">
<path d="M10.5099 11.5V5.18C10.5099 4.204 10.1222 3.26798 9.43205 2.57785C8.74192 1.88771 7.8059 1.5 6.8299 1.5C5.85391 1.5 4.91788 1.88771 4.22775 2.57785C3.53762 3.26798 3.1499 4.204 3.1499 5.18V11.5C3.1499 9.82 4.5199 8.84 6.1999 8.84H7.4599C9.1399 8.84 10.5099 9.82 10.5099 11.5Z" stroke="#A1ABB9" stroke-linecap="round" stroke-linejoin="round"/>
<path d="M20.85 16.15V9.82001C20.85 8.84402 20.4623 7.908 19.7721 7.21786C19.082 6.52773 18.146 6.14001 17.17 6.14001C16.194 6.14001 15.258 6.52773 14.5678 7.21786C13.8777 7.908 13.49 8.84402 13.49 9.82001V16.15C13.49 14.46 14.86 13.48 16.49 13.48H17.8C19.48 13.48 20.85 14.46 20.85 16.15Z" stroke="#A1ABB9" stroke-linecap="round" stroke-linejoin="round"/>
<path d="M3.1499 11.5C3.1499 9.81997 4.5199 8.83997 6.1999 8.83997H7.4599C9.1399 8.83997 10.5099 9.83997 10.5099 11.5V14.18C10.5099 15.156 10.1222 16.092 9.43205 16.7821C8.74192 17.4723 7.8059 17.86 6.8299 17.86C5.85391 17.86 4.91788 17.4723 4.22775 16.7821C3.53762 16.092 3.1499 15.156 3.1499 14.18V11.5Z" stroke="#A1ABB9" stroke-linecap="round" stroke-linejoin="round"/>
<path d="M13.49 16.15C13.49 14.46 14.86 13.48 16.49 13.48H17.8C19.48 13.48 20.85 14.48 20.85 16.15V18.82C20.85 19.796 20.4623 20.732 19.7721 21.4221C19.082 22.1123 18.146 22.5 17.17 22.5C16.194 22.5 15.258 22.1123 14.5678 21.4221C13.8777 20.732 13.49 19.796 13.49 18.82V16.15Z" stroke="#A1ABB9" stroke-linecap="round" stroke-linejoin="round"/>
<path d="M17.1699 18.18V13.48" stroke="#A1ABB9" stroke-linecap="round" stroke-linejoin="round"/>
<path d="M6.83008 13.48V8.83997" stroke="#A1ABB9" stroke-linecap="round" stroke-linejoin="round"/>
</svg>
