<svg width="24" height="24" viewBox="0 0 24 24" fill="none" xmlns="http://www.w3.org/2000/svg">
<path d="M12.5699 9.76001C14.2899 9.76001 15.6899 10.29 15.6899 11.66C15.6899 13.03 14.2899 13.56 12.5699 13.56C10.8499 13.56 9.43994 13 9.43994 11.66C9.43994 10.32 10.8399 9.76001 12.5699 9.76001Z" stroke="#A1ABB9" stroke-linecap="round" stroke-linejoin="round"/>
<path d="M4.99999 8.58999C4.78153 8.53885 4.57002 8.46163 4.36999 8.35999C4.20902 8.57375 3.9964 8.74313 3.75206 8.85224C3.50773 8.96134 3.23969 9.00661 2.97307 8.98378C2.70646 8.96096 2.45001 8.8708 2.22777 8.72175C2.00554 8.5727 1.8248 8.36966 1.7025 8.13165C1.5802 7.89364 1.52036 7.62847 1.52858 7.36101C1.5368 7.09355 1.61281 6.83255 1.74949 6.60251C1.88617 6.37246 2.07904 6.18089 2.31001 6.04577C2.54097 5.91065 2.80248 5.8364 3.06999 5.82999C3.15901 5.30835 3.41795 4.83075 3.80651 4.47151C4.19508 4.11226 4.69148 3.89151 5.2185 3.8436C5.74551 3.79569 6.27359 3.9233 6.72056 4.20659C7.16754 4.48988 7.50836 4.91295 7.68999 5.40999C7.99915 5.3068 8.33277 5.30237 8.64456 5.39735C8.95635 5.49232 9.23085 5.68197 9.42999 5.93999C9.64828 6.22728 9.76442 6.57921 9.75999 6.93999C9.74271 7.24016 9.64015 7.52916 9.46434 7.77306C9.28854 8.01696 9.04679 8.20564 8.76749 8.31694C8.48819 8.42824 8.18294 8.45754 7.88757 8.4014C7.5922 8.34526 7.31898 8.20601 7.09999 7.99999C6.6608 8.41123 6.08165 8.64003 5.47999 8.64C5.31865 8.64066 5.15772 8.6239 4.99999 8.58999Z" stroke="#A1ABB9" stroke-linecap="round" stroke-linejoin="round"/>
<path d="M14.56 17.44H13.23H12.57C10.6682 17.4481 8.76885 17.3043 6.88998 17.01C6.52774 16.9587 6.18404 16.8177 5.88998 16.6C4.60998 15.39 4.31998 11.24 4.99998 8.59004C5.17037 8.63029 5.3449 8.65043 5.51998 8.65004C6.10914 8.63734 6.67244 8.4056 7.09998 8.00004C7.31976 8.22094 7.59996 8.37192 7.90532 8.43399C8.21069 8.49606 8.52759 8.46645 8.81617 8.34888C9.10476 8.23131 9.35213 8.03103 9.52718 7.77324C9.70223 7.51544 9.79714 7.21164 9.79998 6.90004C9.80441 6.53926 9.68827 6.18732 9.46998 5.90004C11.06 5.79004 12.57 5.79004 12.57 5.79004H13.23C14.8 5.79004 18.62 5.96004 19.23 6.62004C19.5882 7.01553 19.8515 7.48749 20 8.00004C20.6043 10.1644 20.673 12.4433 20.2 14.64C19.8704 14.81 19.6144 15.0945 19.48 15.44C19.2578 15.3849 19.0284 15.3647 18.8 15.38C18.6302 15.3814 18.4617 15.4084 18.3 15.46C17.7208 15.604 17.2173 15.9611 16.89 16.46C16.7101 16.3518 16.5098 16.2817 16.3016 16.2542C16.0935 16.2266 15.8819 16.2422 15.68 16.3C15.4074 16.3704 15.1591 16.5137 14.9617 16.7146C14.7644 16.9154 14.6255 17.1662 14.56 17.44Z" stroke="#A1ABB9" stroke-linecap="round" stroke-linejoin="round"/>
<path d="M20.19 14.62C20.2937 14.5621 20.4046 14.5184 20.52 14.49C20.7267 14.4007 20.9503 14.3568 21.1755 14.3615C21.4007 14.3662 21.6222 14.4193 21.825 14.5172C22.0279 14.6151 22.2073 14.7555 22.3511 14.9289C22.4949 15.1022 22.5997 15.3045 22.6584 15.522C22.7171 15.7394 22.7284 15.9669 22.6914 16.1891C22.6544 16.4113 22.57 16.6229 22.444 16.8096C22.318 16.9963 22.1533 17.1537 21.961 17.2711C21.7688 17.3885 21.5536 17.4631 21.33 17.49C21.3827 18.0148 21.261 18.5423 20.9839 18.991C20.7067 19.4398 20.2894 19.7847 19.7966 19.9725C19.3037 20.1603 18.7627 20.1806 18.2572 20.0301C17.7517 19.8796 17.3099 19.5668 17 19.14C16.8576 19.2319 16.7026 19.3026 16.54 19.35C16.3076 19.4106 16.0645 19.4178 15.829 19.3711C15.5934 19.3243 15.3715 19.2248 15.18 19.08C14.8998 18.8688 14.699 18.5694 14.61 18.23C14.5398 17.9713 14.5398 17.6987 14.61 17.44C14.6763 17.1692 14.8144 16.9214 15.0097 16.7225C15.2051 16.5236 15.4504 16.3811 15.72 16.31C15.9218 16.2522 16.1334 16.2366 16.3416 16.2641C16.5498 16.2916 16.75 16.3617 16.93 16.47C17.2573 15.971 17.7608 15.6139 18.34 15.47C18.5017 15.4184 18.6702 15.3914 18.84 15.39C19.0684 15.3747 19.2978 15.3949 19.52 15.45C19.6357 15.1015 19.8737 14.8066 20.19 14.62Z" stroke="#A1ABB9" stroke-linecap="round" stroke-linejoin="round"/>
</svg>
