<svg width="24" height="24" viewBox="0 0 24 24" fill="none" xmlns="http://www.w3.org/2000/svg">
<path d="M1.5 18.57C1.87275 18.8959 2.30778 19.1429 2.77875 19.2959C3.24972 19.4489 3.74683 19.5047 4.24 19.46C4.73648 19.5087 5.23767 19.4548 5.71246 19.3017C6.18725 19.1486 6.62549 18.8995 7 18.57C7.35688 18.2092 7.63872 17.7814 7.82925 17.3111C8.01977 16.8408 8.11519 16.3374 8.11 15.83" stroke="#A1ABB9" stroke-linecap="round" stroke-linejoin="round"/>
<path d="M8.08008 15.83C8.07938 16.3394 8.17978 16.8439 8.37547 17.3142C8.57115 17.7846 8.85824 18.2114 9.22008 18.57C9.59252 18.8964 10.0275 19.1437 10.4986 19.2967C10.9696 19.4497 11.4669 19.5053 11.9601 19.46C12.4517 19.5045 12.9472 19.4485 13.4165 19.2955C13.8859 19.1425 14.3192 18.8957 14.6901 18.57C15.0519 18.2114 15.339 17.7846 15.5347 17.3142C15.7304 16.8439 15.8308 16.3394 15.8301 15.83" stroke="#A1ABB9" stroke-linecap="round" stroke-linejoin="round"/>
<path d="M15.8301 15.83C15.8432 16.8619 16.2638 17.8468 17.0001 18.57C17.371 18.8957 17.8043 19.1425 18.2736 19.2955C18.7429 19.4485 19.2385 19.5045 19.7301 19.46C20.2232 19.5047 20.7204 19.4489 21.1913 19.2959C21.6623 19.1429 22.0973 18.8959 22.4701 18.57" stroke="#A1ABB9" stroke-linecap="round" stroke-linejoin="round"/>
<path d="M12.49 4.54004V7.54004H19" stroke="#A1ABB9" stroke-linecap="round" stroke-linejoin="round"/>
<path d="M12.49 11.26H19" stroke="#A1ABB9" stroke-linecap="round" stroke-linejoin="round"/>
<path d="M19 4.54004V14.34" stroke="#A1ABB9" stroke-linecap="round" stroke-linejoin="round"/>
</svg>
