<svg width="24" height="24" viewBox="0 0 24 24" fill="none" xmlns="http://www.w3.org/2000/svg">
<path d="M20.4 3.6C17.6 0.8 6.4 0.8 3.6 3.6C0.8 6.4 0.8 17.6 3.6 20.4C6.4 23.2 17.6 23.2 20.4 20.4C23.2 17.6 23.2 6.4 20.4 3.6Z" stroke="#A1ABB9" stroke-linecap="round" stroke-linejoin="round"/>
<path d="M11.3401 14.3C12.5517 13.4307 13.4999 12.2438 14.0801 10.87C13.4719 10.6314 12.9075 10.2935 12.4101 9.87001C11.7801 9.19001 11.8901 6.58001 12.5701 5.95001C13.2501 5.32001 15.8601 5.43001 16.4901 6.11001C16.8101 6.46001 20.0301 9.50001 15.6701 14.94C11.3101 20.38 7.67008 17.94 7.23008 17.68C6.43008 17.22 5.75008 14.68 6.23008 13.89C6.71008 13.1 9.23008 12.42 10.0101 12.89C10.5331 13.2779 10.9834 13.7552 11.3401 14.3Z" stroke="#A1ABB9" stroke-linecap="round" stroke-linejoin="round"/>
</svg>
