<svg width="24" height="24" viewBox="0 0 24 24" fill="none" xmlns="http://www.w3.org/2000/svg">
<path d="M1.5 19.3899C1.5 18.4899 1.59 12.1299 2.03 11.6899C3.1 10.6899 7.37 10.6899 8.44 11.6899C8.88 12.1299 8.96 18.4899 8.97 19.3899H1.5Z" stroke="#A1ABB9" stroke-linecap="round" stroke-linejoin="round"/>
<path d="M5.23997 9.14998C6.49366 9.14998 7.50997 8.13367 7.50997 6.87999C7.50997 5.6263 6.49366 4.60999 5.23997 4.60999C3.98628 4.60999 2.96997 5.6263 2.96997 6.87999C2.96997 8.13367 3.98628 9.14998 5.23997 9.14998Z" stroke="#A1ABB9" stroke-linecap="round" stroke-linejoin="round"/>
<path d="M15 19.3899C15 18.9399 16 17.0999 16 15.3299C16 13.5599 15.27 11.9099 15.49 11.6899C16.56 10.6899 20.83 10.6899 21.9 11.6899C22.12 11.9099 21.31 13.5899 21.39 15.3299C21.47 17.0699 22.39 18.9399 22.39 19.3899H15Z" stroke="#A1ABB9" stroke-linecap="round" stroke-linejoin="round"/>
<path d="M18.76 9.14998C20.0137 9.14998 21.03 8.13367 21.03 6.87999C21.03 5.6263 20.0137 4.60999 18.76 4.60999C17.5063 4.60999 16.49 5.6263 16.49 6.87999C16.49 8.13367 17.5063 9.14998 18.76 9.14998Z" stroke="#A1ABB9" stroke-linecap="round" stroke-linejoin="round"/>
<path d="M12 2V22" stroke="#A1ABB9" stroke-linecap="round" stroke-linejoin="round"/>
</svg>
