<svg width="24" height="24" viewBox="0 0 24 24" fill="none" xmlns="http://www.w3.org/2000/svg">
<path d="M13.25 18.1801H19.41H21C21.4167 18.2263 21.7998 18.4303 22.0707 18.7502C22.3416 19.0701 22.4797 19.4816 22.4567 19.9002C22.4337 20.3188 22.2512 20.7126 21.9468 21.0009C21.6424 21.2891 21.2392 21.4498 20.82 21.4501H13.25" stroke="#A1ABB9" stroke-linecap="round" stroke-linejoin="round"/>
<path d="M10.7501 8.72998H4.59009H3.00009C2.58611 8.77493 2.20473 8.97567 1.93332 9.29148C1.66191 9.60729 1.5208 10.0145 1.53861 10.4305C1.55642 10.8466 1.73183 11.2403 2.02923 11.5317C2.32664 11.8232 2.72378 11.9906 3.14009 12H10.7501" stroke="#A1ABB9" stroke-linecap="round" stroke-linejoin="round"/>
<path d="M13.2501 18.2C12.8152 18.2 12.398 18.0273 12.0905 17.7197C11.7829 17.4121 11.6101 16.995 11.6101 16.56C11.6101 16.1251 11.7829 15.7079 12.0905 15.4004C12.398 15.0928 12.8152 14.92 13.2501 14.92H18.5801" stroke="#A1ABB9" stroke-linecap="round" stroke-linejoin="round"/>
<path d="M10.7499 8.74997C10.9653 8.74997 11.1785 8.70755 11.3775 8.62513C11.5765 8.54272 11.7573 8.42191 11.9096 8.26963C12.0619 8.11734 12.1827 7.93655 12.2651 7.73757C12.3475 7.5386 12.3899 7.32534 12.3899 7.10997C12.3899 6.8946 12.3475 6.68134 12.2651 6.48237C12.1827 6.2834 12.0619 6.1026 11.9096 5.95032C11.7573 5.79803 11.5765 5.67723 11.3775 5.59481C11.1785 5.51239 10.9653 5.46997 10.7499 5.46997H5.41992" stroke="#A1ABB9" stroke-linecap="round" stroke-linejoin="round"/>
<path d="M13.2499 21.46H12.5399C11.3218 21.404 10.172 20.8807 9.3298 19.9988C8.48755 19.117 8.01758 17.9444 8.01758 16.725C8.01758 15.5055 8.48755 14.333 9.3298 13.4512C10.172 12.5693 11.3218 12.046 12.5399 11.99H19.4099C20.0668 11.9924 20.706 12.2034 21.2352 12.5926C21.7644 12.9818 22.1563 13.5291 22.3543 14.1555C22.5524 14.7818 22.5463 15.4549 22.337 16.0776C22.1277 16.7003 21.7261 17.2404 21.1899 17.62C20.6673 17.9833 20.0464 18.1786 19.4099 18.18" stroke="#A1ABB9" stroke-linecap="round" stroke-linejoin="round"/>
<path d="M10.7501 12H11.4601C12.6783 11.944 13.828 11.4207 14.6702 10.5389C15.5125 9.65701 15.9825 8.48447 15.9825 7.26503C15.9825 6.04559 15.5125 4.87305 14.6702 3.9912C13.828 3.10935 12.6783 2.58603 11.4601 2.53003H4.59012C3.93051 2.52943 3.2879 2.73925 2.75573 3.12897C2.22355 3.51869 1.82956 4.068 1.63104 4.69702C1.43252 5.32605 1.43981 6.00201 1.65186 6.62661C1.86391 7.2512 2.26966 7.79188 2.81012 8.17003C3.33271 8.53333 3.95365 8.72868 4.59012 8.73003" stroke="#A1ABB9" stroke-linecap="round" stroke-linejoin="round"/>
<path d="M12.5401 21.46H6.23011C5.01195 21.404 3.86223 20.8807 3.01999 19.9988C2.17774 19.117 1.70776 17.9444 1.70776 16.725C1.70776 15.5055 2.17774 14.333 3.01999 13.4512C3.86223 12.5693 5.01195 12.046 6.23011 11.99H12.5401" stroke="#A1ABB9" stroke-linecap="round" stroke-linejoin="round"/>
<path d="M11.46 12H17.77C18.9881 11.944 20.1378 11.4207 20.9801 10.5389C21.8223 9.65701 22.2923 8.48447 22.2923 7.26503C22.2923 6.04559 21.8223 4.87305 20.9801 3.9912C20.1378 3.10935 18.9881 2.58603 17.77 2.53003H11.46" stroke="#A1ABB9" stroke-linecap="round" stroke-linejoin="round"/>
</svg>
