<svg width="24" height="24" viewBox="0 0 24 24" fill="none" xmlns="http://www.w3.org/2000/svg">
<path d="M15.9099 15.56C15.9099 16.01 15.9099 16.43 15.9099 16.79H6.32994C6.25994 14.99 6.32994 12.79 6.32994 10.2C6.32994 9.46996 6.32994 8.76996 6.32994 8.19996C6.32994 8.06996 6.32994 7.03996 6.32994 6.91996C6.33522 6.3117 6.58125 5.7303 7.01417 5.30299C7.44709 4.87569 8.03166 4.63729 8.63994 4.63996C9.63994 4.63996 10.9699 4.55996 12.1299 4.56996C13.2899 4.57996 14.5299 4.56996 15.1299 4.65996C15.3 4.65709 15.4693 4.68417 15.6299 4.73996C15.7552 5.87558 15.8153 7.01745 15.8099 8.15996C15.8099 8.76996 15.8099 9.46996 15.8099 10.16C15.9999 12.25 15.9999 13.77 15.9099 15.56Z" stroke="#A1ABB9" stroke-linecap="round" stroke-linejoin="round"/>
<path d="M18.6799 18.11C18.6799 18.56 18.6799 18.97 18.6799 19.34H15.1599C15.3496 19.3428 15.5386 19.3158 15.7199 19.26C15.7799 19.19 15.8299 17.74 15.8699 16.79C15.8699 16.43 15.8699 16.01 15.8699 15.56C15.8699 13.77 15.9199 12.25 15.8699 10.2C15.8699 9.46996 15.8699 8.76996 15.8699 8.19996C15.8753 7.05746 15.8152 5.91559 15.6899 4.77996C15.5292 4.72418 15.36 4.6971 15.1899 4.69996H15.3799H15.9599C16.6461 4.68652 17.3098 4.94495 17.8062 5.4189C18.3027 5.89285 18.5916 6.54386 18.6099 7.22996C18.6099 7.56996 18.6099 7.91996 18.6099 8.22996C18.6099 8.83996 18.6099 9.53996 18.6099 10.23C18.7299 12.25 18.7199 16.32 18.6799 18.11Z" stroke="#A1ABB9" stroke-linecap="round" stroke-linejoin="round"/>
<path d="M15.8701 16.79C15.8701 17.74 15.7801 19.19 15.7201 19.26C15.5388 19.3159 15.3498 19.3429 15.1601 19.34C12.2681 19.501 9.36864 19.4743 6.48008 19.26C6.42008 19.19 6.37008 17.74 6.33008 16.79H15.8701Z" stroke="#A1ABB9" stroke-linecap="round" stroke-linejoin="round"/>
<path d="M19.8901 10.2C19.8797 10.1271 19.8797 10.053 19.8901 9.98004V8.15004C19.9027 7.98381 19.9778 7.82851 20.1003 7.71535C20.2227 7.60219 20.3834 7.53956 20.5501 7.54004H21.8701C22.0452 7.54004 22.213 7.60958 22.3368 7.73335C22.4606 7.85713 22.5301 8.025 22.5301 8.20004V10C22.5275 10.1743 22.4572 10.3407 22.334 10.4639C22.2107 10.5871 22.0444 10.6575 21.8701 10.66H20.5201C20.3799 10.6603 20.2432 10.6158 20.1299 10.5331C20.0166 10.4504 19.9326 10.3337 19.8901 10.2Z" stroke="#A1ABB9" stroke-linecap="round" stroke-linejoin="round"/>
<path d="M4.10989 10.2C4.06149 10.3284 3.97543 10.439 3.863 10.5176C3.75057 10.5961 3.61702 10.6388 3.47989 10.64H2.15989C2.02344 10.6411 1.89013 10.5991 1.77885 10.5201C1.66757 10.4412 1.58397 10.3292 1.53989 10.2C1.52479 10.1275 1.52479 10.0526 1.53989 9.98004V8.15004C1.55252 7.98381 1.62759 7.82851 1.75002 7.71535C1.87245 7.60219 2.03317 7.53956 2.19989 7.54004H3.47989C3.6466 7.53956 3.80732 7.60219 3.92975 7.71535C4.05219 7.82851 4.12726 7.98381 4.13989 8.15004V10C4.13861 10.0677 4.12852 10.135 4.10989 10.2Z" stroke="#A1ABB9" stroke-linecap="round" stroke-linejoin="round"/>
<path d="M4.13989 9.08997H6.35989" stroke="#A1ABB9" stroke-linecap="round" stroke-linejoin="round"/>
<path d="M19.8599 9.08997H15.9199" stroke="#A1ABB9" stroke-linecap="round" stroke-linejoin="round"/>
</svg>
