<svg width="24" height="24" viewBox="0 0 24 24" fill="none" xmlns="http://www.w3.org/2000/svg">
<path d="M10.5601 22.5001H3.06006V11.8001C4.82006 11.2701 5.65006 9.66006 5.65006 7.06006C5.62108 6.01826 5.43568 4.98674 5.10006 4.00006C5.01536 3.71008 4.99744 3.40467 5.04767 3.10678C5.0979 2.80888 5.21496 2.52624 5.39006 2.28006C5.57554 2.02976 5.81886 1.82808 6.09923 1.69225C6.37959 1.55642 6.68867 1.49048 7.00006 1.50006H8.68006L12.0001 8.00006L10.5601 10.8301V22.5001Z" stroke="#A1ABB9" stroke-linecap="round" stroke-linejoin="round"/>
<path d="M10.5601 22.5V10.85L15.3201 1.5H17.0501C17.3539 1.49958 17.6536 1.57092 17.9247 1.70819C18.1957 1.84547 18.4306 2.04482 18.6101 2.29C18.7837 2.53498 18.8999 2.81591 18.9501 3.11193C19.0003 3.40796 18.9832 3.71148 18.9001 4C18.5654 4.98349 18.38 6.01157 18.3501 7.05C18.3501 9.65 19.1801 11.26 20.9401 11.79V22.5H10.5601Z" stroke="#A1ABB9" stroke-linecap="round" stroke-linejoin="round"/>
<path d="M9.18018 2.47009H14.8602" stroke="#A1ABB9" stroke-linecap="round" stroke-linejoin="round"/>
</svg>
