<svg width="24" height="24" viewBox="0 0 24 24" fill="none" xmlns="http://www.w3.org/2000/svg">
<path d="M22.5 14.45C22.5566 15.9711 22.4729 17.4942 22.25 19C21.81 19.46 2.25003 19.49 1.75003 19C1.52957 17.5074 1.44589 15.9978 1.50003 14.49C2.14981 14.49 2.77297 14.2319 3.23244 13.7724C3.6919 13.313 3.95003 12.6898 3.95003 12.04C3.95003 11.3902 3.6919 10.7671 3.23244 10.3076C2.77297 9.84814 2.14981 9.59002 1.50003 9.59002C1.44096 8.05557 1.52466 6.51896 1.75003 5.00002C2.22003 4.51002 21.81 4.54002 22.25 5.00002C22.4705 6.4926 22.5542 8.00221 22.5 9.51002C21.8502 9.51002 21.2271 9.76814 20.7676 10.2276C20.3082 10.6871 20.05 11.3102 20.05 11.96C20.05 12.6098 20.3082 13.233 20.7676 13.6924C21.2271 14.1519 21.8502 14.41 22.5 14.41V14.45Z" stroke="#A1ABB9" stroke-linecap="round" stroke-linejoin="round"/>
<path d="M12 4.68994V9.68994" stroke="#A1ABB9" stroke-linecap="round" stroke-linejoin="round"/>
<path d="M12 14.3101V19.3101" stroke="#A1ABB9" stroke-linecap="round" stroke-linejoin="round"/>
</svg>
