<svg width="24" height="24" viewBox="0 0 24 24" fill="none" xmlns="http://www.w3.org/2000/svg">
<path d="M5.0001 9.52999C4.643 9.82159 4.19613 9.98087 3.7351 9.98087C3.27407 9.98087 2.8272 9.82159 2.4701 9.52999L2.2201 9.32999C1.99537 9.14228 1.81459 8.90752 1.69054 8.64228C1.56649 8.37705 1.5022 8.0878 1.5022 7.79499C1.5022 7.50218 1.56649 7.21294 1.69054 6.9477C1.81459 6.68246 1.99537 6.4477 2.2201 6.25999C4.9746 4.00536 8.44113 2.80377 12.0001 2.86999C15.5722 2.80225 19.0499 4.01944 21.8001 6.29999C22.0214 6.48774 22.1991 6.7214 22.3211 6.98474C22.443 7.24808 22.5061 7.5348 22.5061 7.82499C22.5061 8.11519 22.443 8.4019 22.3211 8.66524C22.1991 8.92858 22.0214 9.16224 21.8001 9.34999C21.7201 9.42999 21.6301 9.48999 21.5501 9.55999C21.193 9.85159 20.7461 10.0109 20.2851 10.0109C19.8241 10.0109 19.3772 9.85159 19.0201 9.55999C17.0419 7.96447 14.5607 7.12442 12.0201 7.18999C9.4764 7.11117 6.98776 7.94072 5.0001 9.52999Z" stroke="#A1ABB9" stroke-linecap="round" stroke-linejoin="round"/>
<path d="M9.76021 14.54C9.42478 14.736 9.03779 14.8257 8.65035 14.7971C8.26292 14.7685 7.89326 14.6231 7.59021 14.38C7.34721 14.1756 7.15641 13.9162 7.03358 13.6233C6.91075 13.3304 6.85943 13.0125 6.88386 12.6959C6.90829 12.3793 7.00777 12.073 7.17408 11.8024C7.34038 11.5319 7.56872 11.3048 7.84021 11.14C9.1125 10.4345 10.5454 10.0694 12.0002 10.08C13.4584 10.0672 14.8951 10.4324 16.1702 11.14C16.441 11.3057 16.6685 11.5334 16.8339 11.8044C16.9993 12.0754 17.0978 12.3819 17.1212 12.6985C17.1447 13.0151 17.0924 13.3327 16.9688 13.6251C16.8451 13.9175 16.6537 14.1763 16.4102 14.38L16.2902 14.48C16.0132 14.7107 15.6697 14.8468 15.3099 14.8684C14.9501 14.89 14.5928 14.7959 14.2902 14.6C13.5939 14.1997 12.8033 13.9926 12.0002 14C11.2198 13.9871 10.449 14.1729 9.76021 14.54Z" stroke="#A1ABB9" stroke-linecap="round" stroke-linejoin="round"/>
<path d="M12.0002 21.13C13.1324 21.13 14.0502 20.2122 14.0502 19.08C14.0502 17.9478 13.1324 17.03 12.0002 17.03C10.868 17.03 9.9502 17.9478 9.9502 19.08C9.9502 20.2122 10.868 21.13 12.0002 21.13Z" stroke="#A1ABB9" stroke-linecap="round" stroke-linejoin="round"/>
</svg>
